<?xml version="1.0" encoding="utf-8"?>
<!-- Generator: Adobe Illustrator 28.0.0, SVG Export Plug-In . SVG Version: 6.00 Build 0)  -->
<svg version="1.1" id="Capa_1" xmlns="http://www.w3.org/2000/svg" xmlns:xlink="http://www.w3.org/1999/xlink" x="0px" y="0px"
	 viewBox="0 0 28.95 28.95" style="enable-background:new 0 0 28.95 28.95;" xml:space="preserve">
<style type="text/css">
	.st0{fill:#292621;}
	.st1{enable-background:new    ;}
	.st2{fill:#D9DAD0;}
</style>
<g>
	<g>
		<path class="st0" d="M3.73,28.95h21.48c2.06,0,3.73-1.67,3.73-3.73V3.73c0-2.06-1.67-3.73-3.73-3.73H3.73C1.67,0,0,1.67,0,3.73
			v21.49C0,27.28,1.67,28.95,3.73,28.95z"/>
	</g>
	<g class="st1">
		<path class="st2" d="M11.79,6.95c-1.99,2.13-4.45,5.4-5.96,7.53c1.51,2.13,3.98,5.4,5.96,7.53h2.55c-1.68-2.04-3.42-4.48-4.59-6.3
			h10.86v-2.46H9.75c1.18-1.85,2.91-4.28,4.59-6.3H11.79z"/>
	</g>
</g>
</svg>
