<?xml version="1.0" encoding="utf-8"?>
<!-- Generator: Adobe Illustrator 28.0.0, SVG Export Plug-In . SVG Version: 6.00 Build 0)  -->
<svg version="1.1" id="Capa_1" xmlns="http://www.w3.org/2000/svg" xmlns:xlink="http://www.w3.org/1999/xlink" x="0px" y="0px"
	 viewBox="0 0 236.5 40.9" style="enable-background:new 0 0 236.5 40.9;" xml:space="preserve">
<style type="text/css">
	.st0{fill:#292621;}
	.st1{opacity:0.6;fill:none;stroke:#292621;stroke-width:5;stroke-linecap:round;stroke-miterlimit:10;enable-background:new    ;}
	.st2{fill:#D9DAD0;}
</style>
<g>
	<g id="Componente_18_1_00000128473748474171969470000000764299218046958000_">
		<path id="Trazado_465_00000107581201529540111700000000276110610794152373_" class="st0" d="M229.8,29.4H6.8c-3.7,0-6.8-3-6.8-6.8
			V7.2c0-3.7,3-6.8,6.8-6.8c0,0,0,0,0,0h223c3.7,0,6.8,3,6.8,6.8v15.5C236.5,26.4,233.5,29.4,229.8,29.4"/>
		
	</g>
	<g id="Grupo_1089" transform="translate(-683 -861.381)">
		<path id="Trazado_479" class="st2" d="M897.7,866c-0.3-0.1-0.6-0.1-0.9,0.1l-8.3,5.9h-4c-0.9,0-1.6,0.6-1.7,1.5v6
			c0.1,0.9,0.8,1.6,1.7,1.5h4l8.3,5.9c0.2,0.1,0.3,0.2,0.5,0.2c0.1,0,0.3,0,0.4-0.1c0.3-0.1,0.5-0.4,0.5-0.7v-19.6
			C898.2,866.4,898,866.1,897.7,866 M888,879.5h-3.4v-6h3.4V879.5z M896.5,884.7l-6.8-4.8v-6.8l6.8-4.8L896.5,884.7z"/>
		<path id="Trazado_480" class="st2" d="M902.6,871.2c-0.4-0.3-0.9-0.3-1.2,0c-0.3,0.3-0.3,0.7-0.1,1c0,0,0.1,0.1,0.1,0.1
			c2.4,2,2.7,5.4,0.7,7.8c-0.2,0.3-0.5,0.5-0.7,0.7c-0.3,0.2-0.3,0.7-0.1,1c0,0,0.1,0.1,0.1,0.1c0.3,0.3,0.9,0.3,1.2,0
			c2.9-2.4,3.4-6.8,0.9-9.8C903.2,871.8,902.9,871.5,902.6,871.2"/>
		<path id="Trazado_481" class="st2" d="M905,869.1c-0.3-0.3-0.9-0.3-1.2,0c-0.3,0.2-0.3,0.7-0.1,1c0,0,0.1,0.1,0.1,0.1
			c3.5,2.9,4,8.1,1.1,11.7c-0.3,0.4-0.7,0.8-1.1,1.1c-0.3,0.2-0.3,0.7-0.1,1c0,0,0.1,0.1,0.1,0.1c0.3,0.3,0.9,0.3,1.2,0
			c4.1-3.4,4.7-9.5,1.3-13.6C905.9,869.9,905.4,869.4,905,869.1"/>
	</g>
</g>
</svg>
