<?xml version="1.0" encoding="utf-8"?>
<!-- Generator: Adobe Illustrator 28.0.0, SVG Export Plug-In . SVG Version: 6.00 Build 0)  -->
<svg version="1.1" id="Capa_1" xmlns="http://www.w3.org/2000/svg" xmlns:xlink="http://www.w3.org/1999/xlink" x="0px" y="0px"
	 viewBox="0 0 47.9 62" style="enable-background:new 0 0 47.9 62;" xml:space="preserve">
<style type="text/css">
	.st0{opacity:0.6;}
	.st1{opacity:0.7;fill:#292621;}
	.st2{fill:#292621;}
</style>
<g id="surface1_00000063616136847667529200000001086612931723625886_" class="st0">
	<path class="st1" d="M38.1,14.9h8.1L33.8,2v8.7C33.8,13,35.7,14.9,38.1,14.9z"/>
	<g>
		<rect x="10.5" y="29.6" class="st2" width="4.1" height="7.3"/>
		<polygon class="st2" points="25,23.3 16.7,29.2 16.7,37.4 25,43.2 		"/>
		<path class="st2" d="M38.1,17.6c-3.8,0-6.9-3.1-6.9-6.9V0H6C2.7,0,0,2.7,0,6v50.1c0,3.3,2.7,6,6,6h36c3.3,0,6-2.7,6-6V17.6H38.1z
			 M30.8,28.1c-0.4-0.4-0.4-0.9,0-1.3c0.4-0.4,1.1-0.4,1.5,0c2,1.7,3,4,3,6.4s-1.1,4.7-3,6.4c-0.2,0.2-0.5,0.3-0.7,0.3
			c-0.3,0-0.5-0.1-0.7-0.3c-0.4-0.4-0.4-0.9,0-1.3c1.6-1.4,2.4-3.2,2.4-5.2C33.3,31.3,32.4,29.5,30.8,28.1z M8.5,36.9v-7.3
			c0-1,0.9-1.8,2.1-1.8h4.8l10-7.1c0.3-0.2,0.7-0.3,1.1-0.1c0.4,0.2,0.6,0.5,0.6,0.8v23.7c0,0.4-0.2,0.7-0.6,0.8
			c-0.1,0.1-0.3,0.1-0.4,0.1c-0.2,0-0.5-0.1-0.6-0.2l-10-7.1h-4.8C9.4,38.8,8.5,37.9,8.5,36.9z M37.5,53.3h-27
			c-0.7,0-1.3-0.6-1.3-1.3c0-0.7,0.6-1.3,1.3-1.3h27c0.7,0,1.3,0.6,1.3,1.3C38.8,52.7,38.2,53.3,37.5,53.3z M35.2,42.3
			c-0.2,0.2-0.5,0.3-0.7,0.3c-0.3,0-0.5-0.1-0.7-0.3c-0.4-0.4-0.4-0.9,0-1.3c2.3-2.1,3.6-4.8,3.6-7.7c0-2.9-1.3-5.7-3.6-7.7
			c-0.4-0.4-0.4-0.9,0-1.3c0.4-0.4,1.1-0.4,1.5,0c2.7,2.4,4.2,5.6,4.2,9S37.9,39.9,35.2,42.3z"/>
	</g>
</g>
</svg>
