<?xml version="1.0" encoding="utf-8"?>
<!-- Generator: Adobe Illustrator 28.0.0, SVG Export Plug-In . SVG Version: 6.00 Build 0)  -->
<svg version="1.1" id="Capa_1" xmlns="http://www.w3.org/2000/svg" xmlns:xlink="http://www.w3.org/1999/xlink" x="0px" y="0px"
	 viewBox="0 0 236.5 40.9" style="enable-background:new 0 0 236.5 40.9;" xml:space="preserve">
<style type="text/css">
	.st0{fill:#292621;}
	.st1{fill:#FC6E53;}
	.st2{opacity:0.4;fill:#D9DAD0;enable-background:new    ;}
	.st3{opacity:0.6;fill:none;stroke:#292621;stroke-width:5;stroke-linecap:round;stroke-miterlimit:10;enable-background:new    ;}
	.st4{fill:none;stroke:#FC6E53;stroke-width:5;stroke-linecap:round;}
</style>
<g id="Componente_18_1">
	<path id="Trazado_465" class="st0" d="M229.8,29.4H6.8c-3.7,0-6.8-3-6.8-6.8V7.2c0-3.7,3-6.8,6.8-6.8c0,0,0,0,0,0h223
		c3.7,0,6.8,3,6.8,6.8v15.5C236.5,26.4,233.5,29.4,229.8,29.4"/>
	<g id="Grupo_1106" transform="translate(-683 -826.381)">
		<path id="Trazado_528" class="st1" d="M904.3,847.2h-0.1c-0.5,0-0.8-0.4-0.8-0.8l0,0v-9.8c0-0.5,0.4-0.8,0.8-0.8c0,0,0,0,0,0h0.1
			c0.5,0,0.8,0.4,0.8,0.8c0,0,0,0,0,0v9.8C905.1,846.9,904.7,847.2,904.3,847.2L904.3,847.2"/>
		<path id="Trazado_529" class="st1" d="M909,847.2h-0.1c-0.5,0-0.8-0.4-0.8-0.8l0,0v-9.8c0-0.5,0.4-0.8,0.8-0.8c0,0,0,0,0,0h0.1
			c0.5,0,0.8,0.4,0.8,0.8c0,0,0,0,0,0v9.8C909.8,846.9,909.4,847.2,909,847.2L909,847.2"/>
		<path id="Trazado_909" class="st2" d="M897.7,830.8c-0.3-0.1-0.6-0.1-0.9,0.1l-8.3,5.9h-4c-0.9,0-1.6,0.6-1.7,1.5v6
			c0.1,0.9,0.8,1.6,1.7,1.5h4l8.3,5.9c0.2,0.1,0.3,0.2,0.5,0.2c0.1,0,0.3,0,0.4-0.1c0.3-0.1,0.5-0.4,0.5-0.7v-19.6
			C898.2,831.2,898,830.9,897.7,830.8 M888,844.3h-3.4v-6h3.4V844.3z M896.5,849.5l-6.8-4.8v-6.8l6.8-4.8L896.5,849.5z"/>
	</g>
</g>
</svg>
