<?xml version="1.0" encoding="UTF-8"?>
<svg id="Capa_2" data-name="Capa 2" xmlns="http://www.w3.org/2000/svg" viewBox="0 0 654 472">
  <defs>
    <style>
      .cls-1 {
        isolation: isolate;
      }

      .cls-2 {
        fill: #292621;
      }

      .cls-2, .cls-3, .cls-4 {
        stroke-width: 0px;
      }

      .cls-3 {
        fill: #9dbab6;
      }

      .cls-4 {
        fill: #fc6e53;
      }
    </style>
  </defs>
  <g id="Puerta-Der">
    <g id="Grupo_1126" data-name="Grupo 1126">
      <g id="Grupo_1117" data-name="Grupo 1117">
        <g id="Grupo_1116" data-name="Grupo 1116">
          <g id="Trazado_916" data-name="Trazado 916">
            <path class="cls-2" d="m1,118.1v9.44h310.27v23.5h13.05v8.5h-9.65v212h41.7v-212h-9.65v-8.5h13.05v-23.5h293.23v-9.44H1Z"/>
          </g>
          <g id="Rectángulo_412" data-name="Rectángulo 412">
            <rect class="cls-2" x="1" y="80" width="652" height="29"/>
          </g>
          <g id="Trazado_917" data-name="Trazado 917">
            <path class="cls-2" d="m174.32,308.73v-169.2h-54.66l-33.34,164.44-45.98-164.44H1v232h37v-122.35l34.21,122.35h37.41l26.7-131.68v78.66c0,29.28,23.74,53.02,53.02,53.02h111.13v-31.29h-94.64c-17.4,0-31.51-14.11-31.51-31.51"/>
          </g>
          <g id="Trazado_918" data-name="Trazado 918">
            <path class="cls-2" d="m569.22,327.91h24.95c27.96,0,50.63-22.67,50.63-50.63v-87.61c0-27.96-22.67-50.63-50.63-50.63h-24.95c-27.96,0-50.63,22.67-50.63,50.63v87.61c0,27.96,22.67,50.63,50.63,50.63m-13.54-135.31c0-11.31,9.17-20.48,20.48-20.48h11.06c11.31,0,20.48,9.17,20.48,20.48v81.74c0,11.31-9.17,20.48-20.48,20.48h-11.06c-11.31,0-20.48-9.17-20.48-20.48v-81.74Z"/>
          </g>
          <g id="Trazado_919" data-name="Trazado 919">
            <path class="cls-2" d="m186.38,301.94c0,16.79,13.61,30.4,30.4,30.4h83.69v-33h-68.58c-4.7,0-8.51-3.81-8.51-8.51v-42.06h30v-33h-30v-43.24h77.09v-33h-114.09v162.4Z"/>
          </g>
          <g id="Trazado_920" data-name="Trazado 920">
            <path class="cls-2" d="m485.33,312.86l-17.85-51.37c24.14-8.63,40.25-31.49,40.25-57.13v-4.17c0-33.5-27.16-60.66-60.66-60.66h-76.54v232h37v-106.52h27.3l20.31,58.46.07.21c10.52,28.76,37.77,47.98,68.39,48.25l122.19.75.2-32-122.19-.75c-17.2-.15-32.52-10.93-38.47-27.07m-77.8-140.32h38.14c16.42,0,29.74,13.3,29.75,29.73s-13.3,29.74-29.73,29.75h-38.17v-59.48Z"/>
          </g>
        </g>
        <g id="Rectángulo_413" data-name="Rectángulo 413">
          <rect class="cls-4" x="1" y="393" width="652" height="79"/>
        </g>
        <g id="Rectángulo_414" data-name="Rectángulo 414">
          <rect class="cls-3" width="654" height="69"/>
        </g>
        <g id="DE_BOGOTÁ" data-name="DE BOGOTÁ" class="cls-1">
          <g class="cls-1">
            <path class="cls-2" d="m156.52,454h-16.95v-42.53h16.95c15.69,0,21.42,8.19,21.42,20.92s-6.24,21.61-21.42,21.61Zm-2.02-35.85h-4.73v29.23h4.73c8.32,0,12.54-4.73,12.54-14.93s-4.03-14.3-12.54-14.3Z"/>
            <path class="cls-2" d="m189.6,454v-42.53h27.6l.63,7.12h-18.02v9.77h16.38v7.06h-16.38v11.47h19.47l-.63,7.12h-29.04Z"/>
            <path class="cls-2" d="m271.5,454h-18.65v-42.53h17.64c7.88,0,14.81,2.77,14.81,10.52,0,5.1-3.72,8.44-9.01,9.39v.06c6.62.32,11.4,3.91,11.4,10.4,0,7.5-5.86,12.16-16.19,12.16Zm-4.35-36.29h-4.1v10.96h4.73c3.65,0,6.93-1.45,6.93-5.61s-2.9-5.36-7.56-5.36Zm1.13,17.51h-5.23v12.54h4.98c6.05,0,8.76-2.08,8.76-6.62,0-4.22-3.4-5.92-8.51-5.92Z"/>
            <path class="cls-2" d="m316.86,454.82c-13.55,0-20.22-7.81-20.22-21.42s6.87-22.74,20.67-22.74,20.22,7.43,20.22,21.11-6.87,23.06-20.67,23.06Zm.38-36.98c-6.68,0-9.64,5.36-9.64,15.37s2.84,14.49,9.39,14.49,9.64-5.67,9.64-15.75c0-9.51-2.84-14.11-9.39-14.11Z"/>
            <path class="cls-2" d="m369.15,454.82c-16.57,0-22.24-8.88-22.24-21.93s7.37-22.24,22.18-22.24c5.23,0,10.02,1.26,13.17,3.28l.69,6.43c-3.28-1.45-6.93-2.14-10.52-2.14-10.02,0-14.55,5.73-14.55,15.12s3.28,14.62,11.4,14.62c1.64,0,3.53-.31,4.98-.76v-8.38l-6.17-.88v-5.42h16v20.16c-4.28,1.39-9.7,2.14-14.93,2.14Z"/>
            <path class="cls-2" d="m414.32,454.82c-13.55,0-20.22-7.81-20.22-21.42s6.87-22.74,20.67-22.74,20.22,7.43,20.22,21.11-6.87,23.06-20.67,23.06Zm.38-36.98c-6.68,0-9.64,5.36-9.64,15.37s2.84,14.49,9.39,14.49,9.64-5.67,9.64-15.75c0-9.51-2.84-14.11-9.39-14.11Z"/>
            <path class="cls-2" d="m453.75,454v-35.41h-13.61l.63-7.12h36.16l.63,7.12h-13.61v35.41h-10.21Z"/>
            <path class="cls-2" d="m508,454l-3.21-9.89h-15.5l-3.28,9.89h-9.32l14.55-42.53h13.29l14.24,42.53h-10.77Zm-7.37-23.31c-1.26-3.91-2.39-7.81-3.4-11.59h-.13c-1.07,3.84-2.27,7.56-3.59,11.59l-2.14,6.36h11.34l-2.08-6.36Zm-6.87-21.61c2.65-3.15,5.36-6.8,7.12-9.64h10.33c-2.71,3.15-6.36,7.12-9.32,9.64h-8.13Z"/>
          </g>
        </g>
        <g id="ASÍ_SE_CONSTRUYE_EL" data-name="ASÍ SE CONSTRUYE EL" class="cls-1">
          <g class="cls-1">
            <path class="cls-2" d="m52.41,55l-2.75-8.48h-13.28l-2.81,8.48h-7.99l12.47-36.45h11.39l12.2,36.45h-9.23Zm-6.32-19.98c-1.08-3.35-2.05-6.7-2.92-9.94h-.11c-.92,3.29-1.94,6.48-3.08,9.94l-1.84,5.45h9.72l-1.78-5.45Z"/>
            <path class="cls-2" d="m77.95,55.7c-3.67,0-7.4-.76-10.53-2.59l-.59-5.51c2.81,1.13,6.53,1.67,9.29,1.67,5.02,0,6.86-1.89,6.86-4.16,0-5.89-16.42-3.83-16.42-16.36,0-7.29,5.45-10.91,13.01-10.91,3.67,0,7.24.86,9.72,2.48l.54,5.51c-2.38-.97-5.56-1.57-8.48-1.57-4.16,0-6.05,1.57-6.05,3.78,0,5.99,16.36,3.73,16.36,16.42,0,7.61-5.72,11.23-13.72,11.23Z"/>
            <path class="cls-2" d="m100.09,55V18.55h8.75v36.45h-8.75Zm.81-38.5c2.27-2.7,4.59-5.83,6.1-8.26h8.86c-2.32,2.7-5.45,6.1-7.99,8.26h-6.97Z"/>
            <path class="cls-2" d="m145.5,55.7c-3.67,0-7.4-.76-10.53-2.59l-.59-5.51c2.81,1.13,6.53,1.67,9.29,1.67,5.02,0,6.86-1.89,6.86-4.16,0-5.89-16.42-3.83-16.42-16.36,0-7.29,5.45-10.91,13.01-10.91,3.67,0,7.24.86,9.72,2.48l.54,5.51c-2.38-.97-5.56-1.57-8.48-1.57-4.16,0-6.05,1.57-6.05,3.78,0,5.99,16.36,3.73,16.36,16.42,0,7.61-5.72,11.23-13.72,11.23Z"/>
            <path class="cls-2" d="m167.64,55V18.55h23.65l.54,6.1h-15.44v8.37h14.04v6.05h-14.04v9.83h16.69l-.54,6.1h-24.89Z"/>
            <path class="cls-2" d="m233.58,55.7c-10.96,0-17.82-6.8-17.82-18.79,0-10.58,5.51-19.06,17.5-19.06,4.05,0,7.51.92,9.88,2.16v11.66h-4.81l-1.13-7.13c-.97-.32-2-.54-3.08-.54-5.78,0-8.96,4.59-8.96,12.15,0,7.94,3.46,13.07,11.56,13.07,2.92,0,5.56-.7,7.99-1.84l-.59,5.51c-2.65,1.73-6.26,2.81-10.53,2.81Z"/>
            <path class="cls-2" d="m267.6,55.7c-11.61,0-17.33-6.7-17.33-18.36s5.89-19.49,17.71-19.49,17.33,6.37,17.33,18.09-5.89,19.76-17.71,19.76Zm.32-31.7c-5.72,0-8.26,4.59-8.26,13.18s2.43,12.42,8.05,12.42,8.26-4.86,8.26-13.5c0-8.15-2.43-12.1-8.05-12.1Z"/>
            <path class="cls-2" d="m315.71,55l-11.07-17.66c-.97-1.57-2.75-4.59-3.4-5.67h-.05v23.33h-7.56V18.55h9.07l10.42,17.01c1.08,1.84,3.13,5.24,3.94,6.8h.11v-23.81h7.56v36.45h-9.02Z"/>
            <path class="cls-2" d="m344.76,55.7c-3.67,0-7.4-.76-10.53-2.59l-.59-5.51c2.81,1.13,6.53,1.67,9.29,1.67,5.02,0,6.86-1.89,6.86-4.16,0-5.89-16.42-3.83-16.42-16.36,0-7.29,5.45-10.91,13.01-10.91,3.67,0,7.24.86,9.72,2.48l.54,5.51c-2.38-.97-5.56-1.57-8.48-1.57-4.16,0-6.05,1.57-6.05,3.78,0,5.99,16.36,3.73,16.36,16.42,0,7.61-5.72,11.23-13.72,11.23Z"/>
            <path class="cls-2" d="m373.6,55v-30.35h-11.66l.54-6.1h31l.54,6.1h-11.66v30.35h-8.75Z"/>
            <path class="cls-2" d="m423.28,55l-3.67-7.99c-2.38-5.18-3.78-6.53-6.37-6.53h-3.46v14.53h-8.75V18.55h15.71c7.99,0,12.91,3.56,12.91,10.21,0,4.54-2.65,7.72-7.56,9.07v.11c2.92,1.73,4.27,3.62,6.37,8.1l4.37,8.96h-9.56Zm-9.34-31.1h-4.16v10.96h4.27c3.94,0,6.48-1.84,6.48-5.56,0-3.08-1.84-5.4-6.59-5.4Z"/>
            <path class="cls-2" d="m438.4,43.66v-25.11h8.75v22.84c0,4.59,1.03,8.21,6.86,8.21,5.4,0,7.02-3.29,7.02-8.1v-22.95h7.56v25.11c0,6.97-4.7,12.04-15.07,12.04-11.88,0-15.12-5.94-15.12-12.04Z"/>
            <path class="cls-2" d="m487.81,55v-13.01l-12.2-23.44h9.77l7.29,15.28h.05l7.24-15.28h8.86l-12.26,23.33v13.12h-8.75Z"/>
            <path class="cls-2" d="m515.83,55V18.55h23.65l.54,6.1h-15.44v8.37h14.04v6.05h-14.04v9.83h16.69l-.54,6.1h-24.89Z"/>
            <path class="cls-2" d="m566.7,55V18.55h23.65l.54,6.1h-15.44v8.37h14.04v6.05h-14.04v9.83h16.69l-.54,6.1h-24.89Z"/>
            <path class="cls-2" d="m600.88,55V18.55h8.75v30.35h15.77l-.54,6.1h-23.98Z"/>
          </g>
        </g>
      </g>
      <g id="Trazado_921" data-name="Trazado 921">
        <rect class="cls-2" x="35.42" y="430" width="62.13" height="11"/>
      </g>
      <g id="Trazado_922" data-name="Trazado 922">
        <rect class="cls-2" x="546.45" y="430" width="62.13" height="11"/>
      </g>
    </g>
  </g>
</svg>