<?xml version="1.0" encoding="utf-8"?>
<!-- Generator: Adobe Illustrator 28.0.0, SVG Export Plug-In . SVG Version: 6.00 Build 0)  -->
<svg version="1.1" id="Capa_1" xmlns="http://www.w3.org/2000/svg" xmlns:xlink="http://www.w3.org/1999/xlink" x="0px" y="0px"
	 viewBox="0 0 34.21 34.1" style="enable-background:new 0 0 34.21 34.1;" xml:space="preserve">
<style type="text/css">
	.st0{fill:#73716E;}
</style>
<path class="st0" d="M0.83,3.65c-0.79-0.79-0.79-2.1,0-2.89c0.79-0.79,2.1-0.79,2.89,0l13.39,13.39L30.49,0.76
	c0.79-0.79,2.1-0.79,2.89,0c0.79,0.79,0.79,2.1-0.02,2.9L20,17.04l13.38,13.38c0.79,0.81,0.79,2.1,0,2.89
	c-0.79,0.79-2.1,0.79-2.9-0.02L17.11,19.93L3.72,33.31c-0.79,0.79-2.1,0.79-2.89,0c-0.79-0.79-0.79-2.1,0-2.89l13.39-13.38
	L0.83,3.65z"/>
</svg>
