<?xml version="1.0" encoding="utf-8"?>
<!-- Generator: Adobe Illustrator 28.0.0, SVG Export Plug-In . SVG Version: 6.00 Build 0)  -->
<svg version="1.1" id="Capa_1" xmlns="http://www.w3.org/2000/svg" xmlns:xlink="http://www.w3.org/1999/xlink" x="0px" y="0px"
	 viewBox="0 0 28.95 28.95" style="enable-background:new 0 0 28.95 28.95;" xml:space="preserve">
<style type="text/css">
	.st0{fill:#292621;}
	.st1{fill:#E0E1D8;stroke:#D9DAD0;stroke-width:0.7368;stroke-miterlimit:10;}
</style>
<g>
	<path class="st0" d="M25.22,28.95H3.73C1.67,28.95,0,27.28,0,25.22V3.73C0,1.67,1.67,0,3.73,0h21.48c2.06,0,3.73,1.67,3.73,3.73
		v21.49C28.95,27.28,27.28,28.95,25.22,28.95z"/>
	<path class="st1" d="M5.82,7.36c-0.42-0.42-0.42-1.11,0-1.54c0.42-0.42,1.11-0.42,1.54,0l7.12,7.12l7.11-7.12
		c0.42-0.42,1.11-0.42,1.54,0c0.42,0.42,0.42,1.11-0.01,1.54l-7.11,7.11l7.11,7.11c0.42,0.43,0.42,1.11,0,1.54
		c-0.42,0.42-1.11,0.42-1.54-0.01l-7.11-7.11l-7.12,7.11c-0.42,0.42-1.11,0.42-1.54,0c-0.42-0.42-0.42-1.11,0-1.54l7.12-7.11
		L5.82,7.36z"/>
</g>
</svg>
