<?xml version="1.0" encoding="utf-8"?>
<!-- Generator: Adobe Illustrator 28.0.0, SVG Export Plug-In . SVG Version: 6.00 Build 0)  -->
<svg version="1.1" id="Capa_1" xmlns="http://www.w3.org/2000/svg" xmlns:xlink="http://www.w3.org/1999/xlink" x="0px" y="0px"
	 viewBox="0 0 23.2 23.2" style="enable-background:new 0 0 23.2 23.2;" xml:space="preserve">
<style type="text/css">
	.st0{clip-path:url(#SVGID_00000145060629638675930880000015352825862799786881_);}
	.st1{fill:#292621;}
</style>
<g id="Grupo_60" transform="translate(892 1674.95)">
	<g>
		<g>
			<g>
				<defs>
					<rect id="SVGID_1_" x="-891.9" y="-1674.7" width="23" height="22.8"/>
				</defs>
				<clipPath id="SVGID_00000111904375764262202880000011741707406637531026_">
					<use xlink:href="#SVGID_1_"  style="overflow:visible;"/>
				</clipPath>
				
					<g id="Grupo_59" transform="translate(0 0)" style="clip-path:url(#SVGID_00000111904375764262202880000011741707406637531026_);">
					<path id="Trazado_2833" class="st1" d="M-880.4-1674.7c-6.4,0-11.5,5.1-11.5,11.5c0,5.6,4.1,10.5,9.7,11.4v-8h-2.9v-3.3h2.9v-2
						c-0.1-3.5,1.6-4.9,4.2-5c0.9,0,1.9,0.1,2.8,0.2v2.8h-1.4c-0.9-0.1-1.8,0.5-1.9,1.4c0,0.1,0,0.3,0,0.4v2.1h3.2l-0.6,3.4h-2.7v8
						c6.3-1,10.6-6.9,9.6-13.1C-869.9-1670.6-874.7-1674.7-880.4-1674.7"/>
				</g>
			</g>
		</g>
	</g>
</g>
</svg>
