<?xml version="1.0" encoding="utf-8"?>
<!-- Generator: Adobe Illustrator 28.0.0, SVG Export Plug-In . SVG Version: 6.00 Build 0)  -->
<svg version="1.1" id="Capa_1" xmlns="http://www.w3.org/2000/svg" xmlns:xlink="http://www.w3.org/1999/xlink" x="0px" y="0px"
	 viewBox="0 0 47.91 62.03" style="enable-background:new 0 0 47.91 62.03;" xml:space="preserve">
<style type="text/css">
	.st0{opacity:0.6;}
	.st1{fill:#292621;}
	.st2{opacity:0.7;fill:#292621;}
</style>
<g id="surface1_00000127015940265600997740000011636905219057575056_" class="st0">
	<path class="st1" d="M23.94,29.39c-2.17,0-3.94,1.77-3.94,3.94c0,2.17,1.77,3.94,3.94,3.94s3.94-1.77,3.94-3.94
		C27.88,31.16,26.11,29.39,23.94,29.39z"/>
	<path class="st1" d="M34.46,26.91h-2.71c-1.66,0-3.1-1.12-3.49-2.72l-0.13-0.51c-0.11-0.44-0.51-0.72-0.95-0.72h-6.43
		c-0.46,0-0.85,0.28-0.95,0.72l-0.11,0.46c-0.39,1.62-1.84,2.76-3.51,2.76h-2.71c-0.54,0-0.98,0.43-0.98,0.97v12.87
		c0,0.54,0.44,0.94,0.98,0.94h21c0.54,0,0.98-0.39,0.98-0.94V27.86C35.44,27.34,35,26.91,34.46,26.91z M23.94,39.89
		c-3.61,0-6.56-2.94-6.56-6.56c0-3.61,2.94-6.56,6.56-6.56s6.56,2.94,6.56,6.56C30.5,36.95,27.57,39.89,23.94,39.89z"/>
	<path class="st1" d="M31.18,10.7V0H5.97C2.71,0,0,2.69,0,5.96v50.11c0,3.27,2.71,5.96,5.97,5.96h35.97c3.27,0,5.97-2.69,5.97-5.96
		V17.56h-9.86C34.25,17.56,31.18,14.49,31.18,10.7z M38.77,52.02c0,0.72-0.59,1.31-1.31,1.31H10.45c-0.72,0-1.31-0.59-1.31-1.31
		c0-0.72,0.59-1.31,1.31-1.31h27.03C38.2,50.7,38.77,51.3,38.77,52.02z M38.07,40.74c0,1.99-1.61,3.56-3.61,3.56h-21
		c-1.99,0-3.61-1.56-3.61-3.56V27.88c0-1.99,1.61-3.59,3.61-3.59h2.71c0.46,0,0.85-0.3,0.95-0.74l0.11-0.48
		c0.39-1.62,1.84-2.72,3.51-2.72h6.43c1.66,0,3.1,1.1,3.5,2.71l0.13,0.49c0.11,0.44,0.51,0.75,0.95,0.75h2.71
		c1.99,0,3.61,1.61,3.61,3.59L38.07,40.74L38.07,40.74z"/>
	<path class="st2" d="M38.05,14.93h8.06L33.8,2.02v8.68C33.8,13.05,35.69,14.93,38.05,14.93z"/>
</g>
</svg>
