<?xml version="1.0" encoding="utf-8"?>
<!-- Generator: Adobe Illustrator 28.0.0, SVG Export Plug-In . SVG Version: 6.00 Build 0)  -->
<svg version="1.1" id="Capa_1" xmlns="http://www.w3.org/2000/svg" xmlns:xlink="http://www.w3.org/1999/xlink" x="0px" y="0px"
	 viewBox="0 0 70.59 34.55" style="enable-background:new 0 0 70.59 34.55;" xml:space="preserve">
<style type="text/css">
	.st0{fill:#FC6E53;}
	.st1{opacity:0.6;}
	.st2{fill:#292621;}
</style>
<g>
	<g>
		<path class="st0" d="M22.7,15.97c-1.24,0-2.45-0.32-3.26-0.83l-0.18-1.2c0.99,0.41,1.97,0.59,2.94,0.59
			c2.27,0,3.38-0.91,3.38-2.55c0-1.52-1.09-2.31-3.16-2.31h-1.76V8.33h1.52c1.64,0,2.92-0.87,2.92-2.51c0-1.32-0.99-2.27-2.68-2.27
			c-0.99,0-1.82,0.2-2.8,0.59l0.14-1.2c0.87-0.51,2.03-0.83,3.26-0.83c2.17,0,4.05,1.11,4.05,3.42c0,1.64-0.97,2.8-2.45,3.32v0.04
			c1.64,0.24,2.92,1.28,2.92,3.28C27.54,14.31,26.01,15.97,22.7,15.97z"/>
		<path class="st0" d="M34.37,15.97c-3.61,0-4.48-2.98-4.48-6.38c0-3.46,1.28-7.46,5.19-7.46c1.19,0,2.25,0.34,3,0.83l0.18,1.2
			c-0.73-0.36-1.7-0.59-2.7-0.59c-2.8,0-3.69,2.51-3.79,4.99h0.02c0.95-0.59,2.13-1.09,3.42-1.09c2.05,0,3.61,1.4,3.61,4.05
			C38.81,14.47,36.91,15.97,34.37,15.97z M34.47,8.96c-0.97,0-1.88,0.34-2.72,0.83c-0.04,2.82,0.42,4.94,2.61,4.94
			c1.62,0,2.57-1.09,2.57-3C36.91,9.95,36.02,8.96,34.47,8.96z"/>
		<path class="st0" d="M44.75,15.97c-2.92,0-4.62-1.92-4.62-6.71c0-4.8,1.84-7.13,4.7-7.13c2.92,0,4.62,1.97,4.62,6.77
			C49.45,13.7,47.61,15.97,44.75,15.97z M44.83,3.4c-1.8,0-2.84,1.84-2.84,5.86c0,3.95,0.97,5.45,2.76,5.45
			c1.82,0,2.84-1.74,2.84-5.8C47.59,5.01,46.63,3.4,44.83,3.4z"/>
		<path class="st0" d="M53.28,5.52c-1.8,0-2.8-0.85-2.8-2.26c0-1.44,1.02-2.39,2.85-2.39c1.8,0,2.8,0.85,2.8,2.26
			C56.13,4.57,55.11,5.52,53.28,5.52z M53.3,1.79c-0.83,0-1.41,0.46-1.41,1.44c0,0.92,0.58,1.36,1.41,1.36s1.41-0.46,1.41-1.44
			C54.72,2.23,54.13,1.79,53.3,1.79z"/>
	</g>
	<g id="Layer_2_00000171699870333739114470000002767916011184984252_" class="st1">
		<path class="st2" d="M31.72,21.68c-0.52-0.54-1.39-0.56-1.93-0.03c-0.54,0.52-0.56,1.39-0.03,1.93c0.01,0.01,0.02,0.02,0.03,0.03
			l2.28,2.28c-16.55-0.5-28.03-4.64-28.03-8.13c0-1.27,1.91-3.25,7.25-5.02c0.72-0.24,1.1-1.01,0.87-1.72
			c-0.24-0.72-1.01-1.1-1.72-0.87c-5.97,1.98-9.12,4.61-9.12,7.61c0,6.88,15.91,10.44,30.86,10.87l-2.38,2.38
			c-0.53,0.53-0.53,1.4,0,1.93c0.53,0.53,1.4,0.53,1.93,0l4.67-4.67c0.53-0.53,0.53-1.4,0-1.93L31.72,21.68z"/>
		<path class="st2" d="M60.41,10.15c-0.71-0.26-1.49,0.11-1.75,0.82c-0.26,0.71,0.11,1.49,0.82,1.75c0.02,0.01,0.05,0.02,0.07,0.02
			c5.34,1.78,7.25,3.75,7.25,5.02c0,3.27-9.94,7.27-25.99,8.06c-0.75,0.02-1.35,0.64-1.33,1.4c0.02,0.75,0.64,1.35,1.4,1.33h0.07
			c14.23-0.7,28.59-4.31,28.59-10.79C69.53,14.75,66.38,12.12,60.41,10.15z"/>
	</g>
</g>
</svg>
