<?xml version="1.0" encoding="utf-8"?>
<!-- Generator: Adobe Illustrator 28.0.0, SVG Export Plug-In . SVG Version: 6.00 Build 0)  -->
<svg version="1.1" id="Capa_1" xmlns="http://www.w3.org/2000/svg" xmlns:xlink="http://www.w3.org/1999/xlink" x="0px" y="0px"
	 viewBox="0 0 47.91 62.03" style="enable-background:new 0 0 47.91 62.03;" xml:space="preserve">
<style type="text/css">
	.st0{opacity:0.6;}
	.st1{opacity:0.7;fill:#292621;}
	.st2{fill:#292621;}
</style>
<g class="st0">
	<path class="st1" d="M33.8,10.7V2.02l12.31,12.91h-8.06C35.69,14.93,33.8,13.05,33.8,10.7z"/>
	<path class="st2" d="M38.05,17.56c-3.81,0-6.88-3.07-6.88-6.86V0H5.97C2.71,0,0,2.69,0,5.96v50.11c0,3.27,2.71,5.96,5.97,5.96
		h35.97c3.27,0,5.97-2.69,5.97-5.96V17.56H38.05z M37.46,53.33H10.45c-0.72,0-1.31-0.59-1.31-1.31c0-0.72,0.59-1.31,1.31-1.31h27.03
		c0.72,0,1.31,0.59,1.31,1.31C38.79,52.74,38.2,53.33,37.46,53.33z M37.46,46.07H10.45c-0.72,0-1.31-0.59-1.31-1.31
		s0.59-1.31,1.31-1.31h27.03c0.72,0,1.31,0.59,1.31,1.31S38.2,46.07,37.46,46.07z M37.46,38.81H10.45c-0.72,0-1.31-0.59-1.31-1.31
		c0-0.72,0.59-1.31,1.31-1.31h27.03c0.72,0,1.31,0.59,1.31,1.31C38.79,38.22,38.2,38.81,37.46,38.81z M37.46,31.56H10.45
		c-0.72,0-1.31-0.59-1.31-1.31c0-0.72,0.59-1.31,1.31-1.31h27.03c0.72,0,1.31,0.59,1.31,1.31C38.79,30.96,38.2,31.56,37.46,31.56z
		 M37.46,24.3H10.45c-0.72,0-1.31-0.59-1.31-1.31c0-0.72,0.59-1.31,1.31-1.31h27.03c0.72,0,1.31,0.59,1.31,1.31
		C38.79,23.71,38.2,24.3,37.46,24.3z"/>
</g>
</svg>
