<?xml version="1.0" encoding="utf-8"?>
<!-- Generator: Adobe Illustrator 28.0.0, SVG Export Plug-In . SVG Version: 6.00 Build 0)  -->
<svg version="1.1" id="Capa_1" xmlns="http://www.w3.org/2000/svg" xmlns:xlink="http://www.w3.org/1999/xlink" x="0px" y="0px"
	 viewBox="0 0 516.13 781.64" style="enable-background:new 0 0 516.13 781.64;" xml:space="preserve">
<style type="text/css">
	.st0{opacity:0.8;}
	.st1{fill:#292621;}
</style>
<g class="st0">
	<g id="Trazado_196">
		<path class="st1" d="M145.58,6.37C116.8,6.91,77.48,7.23,48.7,7.49c-3.1-0.09-17.41,0.23-20.18,0.17
			c-3.79-0.03-7.7,0.05-11.08,1.94c-4.43,2.23-7.69,6.53-8.79,11.32c-0.61,2.52-0.42,5.08-0.44,7.67c0,0,0.03,8.07,0.03,8.07
			c0.59,72.88-0.67,153.1-0.95,226.07C6.89,348.5,8.33,435.35,8.47,521.09c0.36,77.57,0.31,160.43-0.19,238.15
			c-0.08,8.75,7.45,16.65,16.26,16.85c0.59,0.05,1.28,0.05,1.96,0.05c0,0,2.02,0.01,2.02,0.01c3,0.04,16.91,0.14,20.18,0.19
			c28.76,0.16,68.13,0.74,96.89,1.11c0,0,0,0.4,0,0.4c-28.78,0.35-68.11,0.93-96.89,1.11c-5.72,0.04-18.74,0.24-24.28,0.17
			c-10.45-0.18-19.47-9.36-19.5-19.84c-0.22-26.62-0.39-81.7-0.47-109.02C4.08,521.25,6.07,391.76,5.89,262.72
			C5.56,186.89,4.33,104.34,4.97,28.58C3.81,15.32,12.54,4.23,26.5,4.67c25.7,0,60.98,0.64,86.79,0.82c0,0,32.3,0.48,32.3,0.48
			S145.58,6.37,145.58,6.37L145.58,6.37z"/>
	</g>
	<g id="Trazado_197">
		<path class="st1" d="M372.84,5.97c37.34-0.5,81.83-1.12,119.09-1.3c13.84-0.4,22.68,10.47,21.53,23.92
			c0.64,75.72-0.59,158.32-0.93,234.14c-0.18,129.04,1.81,258.52,1.44,387.54c-0.09,27.03-0.23,82.25-0.47,109.02
			c-0.02,10.42-9.04,19.71-19.5,19.84c-5.48,0.12-18.64-0.19-24.28-0.17c-28.76-0.32-68.13-0.62-96.89-1.11c0,0,0-0.4,0-0.4
			c28.78-0.51,68.11-0.82,96.89-1.11c3.12,0,17.38-0.18,20.18-0.19c1.14,0.03,2.89-0.02,3.97-0.06c8.81-0.25,16.34-8.05,16.26-16.85
			c-0.5-77.79-0.55-160.55-0.19-238.15c0.13-85.73,1.57-172.6,1.19-258.36c-0.29-72.98-1.55-153.16-0.95-226.07
			c0,0,0.03-8.07,0.03-8.07c-0.02-2.59,0.17-5.15-0.44-7.67c-1.1-4.79-4.36-9.09-8.79-11.32c-3.38-1.85-7.29-2.03-11.08-1.94
			c-2.89-0.05-17.01-0.13-20.18-0.17c-16.08,0.05-48.51-0.55-64.59-0.64c0,0-32.3-0.48-32.3-0.48S372.84,5.97,372.84,5.97
			L372.84,5.97z"/>
	</g>
</g>
</svg>
