<?xml version="1.0" encoding="utf-8"?>
<!-- Generator: Adobe Illustrator 28.0.0, SVG Export Plug-In . SVG Version: 6.00 Build 0)  -->
<svg version="1.1" xmlns="http://www.w3.org/2000/svg" xmlns:xlink="http://www.w3.org/1999/xlink" x="0px" y="0px"
	 viewBox="0 0 2220.54 1080" style="enable-background:new 0 0 2220.54 1080;" xml:space="preserve">
<style type="text/css">
	.st0{fill:#2C2A26;}
	.st1{fill:#41403C;}
	.st2{fill:#575552;}
	.st3{fill:#373531;}
	.st4{fill:none;stroke:#D8D9CF;stroke-width:4;stroke-miterlimit:10;}
	.st5{fill:none;stroke:#2C2A26;stroke-width:6;stroke-miterlimit:10;}
	.st6{fill:none;}
	.st7{fill:none;stroke:#2C2A26;stroke-width:4;stroke-miterlimit:10;}
	.st8{fill:none;stroke:#D8D9CF;stroke-width:7;stroke-linecap:round;stroke-miterlimit:10;}
	.st9{fill:none;stroke:#D8D9CF;stroke-width:4;stroke-linecap:round;stroke-miterlimit:10;}
	.st10{fill:none;stroke:#D8D9CF;stroke-width:4;stroke-linecap:round;stroke-miterlimit:10;stroke-dasharray:5.88,17.64;}
	
		.st11{fill:none;stroke:#D8D9CF;stroke-width:4;stroke-linecap:round;stroke-miterlimit:10;stroke-dasharray:23.5199,5.88,5.88,17.64;}
	.st12{fill:#A6CD6D;}
	.st13{fill:#D8D9CF;}
	.st14{fill:#6B8B84;}
	.st15{fill:#89A29D;}
	.st16{fill:none;stroke:#2C2A26;stroke-width:5;stroke-miterlimit:10;}
	.st17{fill:#41403C;stroke:#2C2A26;stroke-width:4;stroke-miterlimit:10;}
	.st18{fill:#817F7D;}
	.st19{fill:none;stroke:#D8D9CF;stroke-width:4;stroke-linecap:round;stroke-miterlimit:10;stroke-dasharray:8.5225,25.5674;}
	
		.st20{fill:none;stroke:#D8D9CF;stroke-width:4;stroke-linecap:round;stroke-miterlimit:10;stroke-dasharray:34.0899,8.5225,8.5225,25.5674;}
</style>
<g id="Puerta-Izq">
	<g>
		<path class="st0" d="M1110.27,151.33v860.17H843.93c-27.09,0-49.06-21.96-49.06-49.05V200.39c0-27.1,21.97-49.06,49.06-49.06
			H1110.27z M1096.27,997.5V165.33H843.93c-19.33,0-35.06,15.72-35.06,35.06v762.06c0,19.33,15.73,35.05,35.06,35.05H1096.27z"/>
		<path class="st1" d="M1096.27,165.33V997.5H843.93c-19.33,0-35.06-15.72-35.06-35.05V200.39c0-19.34,15.73-35.06,35.06-35.06
			H1096.27z M1050.54,909.19V757c0-17.79-14.43-32.22-32.23-32.22h-135.2c-17.79,0-32.22,14.43-32.22,32.22v152.19
			c0,17.8,14.43,32.23,32.22,32.23h135.2C1036.11,941.42,1050.54,926.99,1050.54,909.19z M1050.54,647.95V264.26
			c0-17.8-14.43-32.22-32.23-32.22h-135.2c-17.79,0-32.22,14.42-32.22,32.22v383.69c0,17.8,14.43,32.23,32.22,32.23h135.2
			C1036.11,680.18,1050.54,665.75,1050.54,647.95z"/>
		<path class="st2" d="M1050.54,757v152.19c0,17.8-14.43,32.23-32.23,32.23h-135.2c-17.79,0-32.22-14.43-32.22-32.23V757
			c0-17.79,14.43-32.22,32.22-32.22h135.2C1036.11,724.78,1050.54,739.21,1050.54,757z M1036.54,909.19V757
			c0-10.05-8.18-18.22-18.23-18.22h-135.2c-10.04,0-18.22,8.17-18.22,18.22v152.19c0,10.05,8.18,18.23,18.22,18.23h135.2
			C1028.36,927.42,1036.54,919.24,1036.54,909.19z"/>
		<path class="st2" d="M1050.54,264.26v383.69c0,17.8-14.43,32.23-32.23,32.23h-135.2c-17.79,0-32.22-14.43-32.22-32.23V264.26
			c0-17.8,14.43-32.22,32.22-32.22h135.2C1036.11,232.04,1050.54,246.46,1050.54,264.26z M1036.54,647.95V264.26
			c0-10.05-8.18-18.22-18.23-18.22h-135.2c-10.04,0-18.22,8.17-18.22,18.22v383.69c0,10.05,8.18,18.23,18.22,18.23h135.2
			C1028.36,666.18,1036.54,658,1036.54,647.95z"/>
		<path class="st0" d="M1036.54,757v152.19c0,10.05-8.18,18.23-18.23,18.23h-135.2c-10.04,0-18.22-8.18-18.22-18.23V757
			c0-10.05,8.18-18.22,18.22-18.22h135.2C1028.36,738.78,1036.54,746.95,1036.54,757z"/>
		<path class="st0" d="M1036.54,264.26v383.69c0,10.05-8.18,18.23-18.23,18.23h-135.2c-10.04,0-18.22-8.18-18.22-18.23V264.26
			c0-10.05,8.18-18.22,18.22-18.22h135.2C1028.36,246.04,1036.54,254.21,1036.54,264.26z"/>
		<path class="st3" d="M1018.31,941.42h-135.2c-17.79,0-32.22-14.43-32.22-32.23V757c0-4.48,0.92-8.75,2.57-12.63
			c-8.36,5.82-13.83,15.5-13.83,26.45v152.19c0,17.8,14.43,32.23,32.22,32.23h135.2c13.31,0,24.74-8.07,29.66-19.59
			C1031.49,939.29,1025.15,941.42,1018.31,941.42z M1018.31,680.18h-135.2c-17.79,0-32.22-14.43-32.22-32.23V264.26
			c0-4.49,0.92-8.76,2.58-12.64c-8.37,5.81-13.84,15.5-13.84,26.46v383.69c0,17.8,14.43,32.23,32.22,32.23h135.2
			c13.31,0,24.74-8.07,29.66-19.59C1031.49,678.05,1025.15,680.18,1018.31,680.18z M843.93,165.33c-14.17,0-26.41,8.45-31.93,20.58
			c5.8-4.25,12.95-6.76,20.67-6.76h252.34V997.5h11.26V165.33H843.93z M1018.31,680.18h-135.2c-17.79,0-32.22-14.43-32.22-32.23
			V264.26c0-4.49,0.92-8.76,2.58-12.64c-8.37,5.81-13.84,15.5-13.84,26.46v383.69c0,17.8,14.43,32.23,32.22,32.23h135.2
			c13.31,0,24.74-8.07,29.66-19.59C1031.49,678.05,1025.15,680.18,1018.31,680.18z M1018.31,941.42h-135.2
			c-17.79,0-32.22-14.43-32.22-32.23V757c0-4.48,0.92-8.75,2.57-12.63c-8.36,5.82-13.83,15.5-13.83,26.45v152.19
			c0,17.8,14.43,32.23,32.22,32.23h135.2c13.31,0,24.74-8.07,29.66-19.59C1031.49,939.29,1025.15,941.42,1018.31,941.42z"/>
		<line class="st4" x1="1110.27" y1="1011.5" x2="843.93" y2="1011.5"/>
		<path class="st5" d="M1050.54,647.95V264.26c0-17.8-14.43-32.22-32.23-32.22h-135.2c-17.79,0-32.22,14.42-32.22,32.22v383.69
			c0,17.8,14.43,32.23,32.22,32.23h135.2C1036.11,680.18,1050.54,665.75,1050.54,647.95z"/>
		<path class="st6" d="M1036.54,647.95c0,10.05-8.18,18.23-18.23,18.23h-135.2c-10.04,0-18.22-8.18-18.22-18.23V264.26
			c0-10.05,8.18-18.22,18.22-18.22h135.2c10.05,0,18.23,8.17,18.23,18.22V647.95z"/>
		<path class="st5" d="M1050.54,909.19V757c0-17.79-14.43-32.22-32.23-32.22h-135.2c-17.79,0-32.22,14.43-32.22,32.22v152.19
			c0,17.8,14.43,32.23,32.22,32.23h135.2C1036.11,941.42,1050.54,926.99,1050.54,909.19z"/>
		<path class="st6" d="M1036.54,909.19c0,10.05-8.18,18.23-18.23,18.23h-135.2c-10.04,0-18.22-8.18-18.22-18.23V757
			c0-10.05,8.18-18.22,18.22-18.22h135.2c10.05,0,18.23,8.17,18.23,18.22V909.19z"/>
		<path class="st7" d="M1096.27,165.33V997.5H843.93c-19.33,0-35.06-15.72-35.06-35.05V200.39c0-19.34,15.73-35.06,35.06-35.06
			H1096.27z"/>
		<path class="st4" d="M843.93,1011.5c-27.09,0-49.06-21.96-49.06-49.05V200.39c0-27.1,21.97-49.06,49.06-49.06h266.34"/>
		<line class="st8" x1="893.19" y1="546.76" x2="956.54" y2="409.75"/>
		<line class="st8" x1="944.89" y1="546.76" x2="1008.24" y2="409.75"/>
		<g>
			<g>
				<line class="st9" x1="925.22" y1="533.76" x2="933.62" y2="515.61"/>
				<line class="st10" x1="936.09" y1="510.27" x2="942.26" y2="496.93"/>
				<line class="st11" x1="945.96" y1="488.93" x2="964.47" y2="448.9"/>
				<line class="st9" x1="968.17" y1="440.89" x2="976.56" y2="422.74"/>
			</g>
		</g>
		<line class="st8" x1="893.19" y1="901.6" x2="956.54" y2="764.6"/>
		<line class="st8" x1="944.89" y1="901.6" x2="1008.24" y2="764.6"/>
		<g>
			<g>
				<line class="st9" x1="925.22" y1="888.61" x2="933.62" y2="870.46"/>
				<line class="st10" x1="936.09" y1="865.12" x2="942.26" y2="851.78"/>
				<line class="st11" x1="945.96" y1="843.77" x2="964.47" y2="803.75"/>
				<line class="st9" x1="968.17" y1="795.74" x2="976.56" y2="777.59"/>
			</g>
		</g>
		<path class="st0" d="M1110.27,151.33v860.17H843.93c-27.09,0-49.06-21.96-49.06-49.05V200.39c0-27.1,21.97-49.06,49.06-49.06
			H1110.27z M1096.27,997.5V165.33H843.93c-19.33,0-35.06,15.72-35.06,35.06v762.06c0,19.33,15.73,35.05,35.06,35.05H1096.27z"/>
		<path class="st1" d="M1096.27,165.33V997.5H843.93c-19.33,0-35.06-15.72-35.06-35.05V200.39c0-19.34,15.73-35.06,35.06-35.06
			H1096.27z M1050.54,909.19V757c0-17.79-14.43-32.22-32.23-32.22h-135.2c-17.79,0-32.22,14.43-32.22,32.22v152.19
			c0,17.8,14.43,32.23,32.22,32.23h135.2C1036.11,941.42,1050.54,926.99,1050.54,909.19z M1050.54,647.95V264.26
			c0-17.8-14.43-32.22-32.23-32.22h-135.2c-17.79,0-32.22,14.42-32.22,32.22v383.69c0,17.8,14.43,32.23,32.22,32.23h135.2
			C1036.11,680.18,1050.54,665.75,1050.54,647.95z"/>
		<path class="st2" d="M1050.54,757v152.19c0,17.8-14.43,32.23-32.23,32.23h-135.2c-17.79,0-32.22-14.43-32.22-32.23V757
			c0-17.79,14.43-32.22,32.22-32.22h135.2C1036.11,724.78,1050.54,739.21,1050.54,757z M1036.54,909.19V757
			c0-10.05-8.18-18.22-18.23-18.22h-135.2c-10.04,0-18.22,8.17-18.22,18.22v152.19c0,10.05,8.18,18.23,18.22,18.23h135.2
			C1028.36,927.42,1036.54,919.24,1036.54,909.19z"/>
		<path class="st2" d="M1050.54,264.26v383.69c0,17.8-14.43,32.23-32.23,32.23h-135.2c-17.79,0-32.22-14.43-32.22-32.23V264.26
			c0-17.8,14.43-32.22,32.22-32.22h135.2C1036.11,232.04,1050.54,246.46,1050.54,264.26z M1036.54,647.95V264.26
			c0-10.05-8.18-18.22-18.23-18.22h-135.2c-10.04,0-18.22,8.17-18.22,18.22v383.69c0,10.05,8.18,18.23,18.22,18.23h135.2
			C1028.36,666.18,1036.54,658,1036.54,647.95z"/>
		<path class="st0" d="M1036.54,757v152.19c0,10.05-8.18,18.23-18.23,18.23h-135.2c-10.04,0-18.22-8.18-18.22-18.23V757
			c0-10.05,8.18-18.22,18.22-18.22h135.2C1028.36,738.78,1036.54,746.95,1036.54,757z"/>
		<path class="st0" d="M1036.54,264.26v383.69c0,10.05-8.18,18.23-18.23,18.23h-135.2c-10.04,0-18.22-8.18-18.22-18.23V264.26
			c0-10.05,8.18-18.22,18.22-18.22h135.2C1028.36,246.04,1036.54,254.21,1036.54,264.26z"/>
		<path class="st3" d="M1018.31,941.42h-135.2c-17.79,0-32.22-14.43-32.22-32.23V757c0-4.48,0.92-8.75,2.57-12.63
			c-8.36,5.82-13.83,15.5-13.83,26.45v152.19c0,17.8,14.43,32.23,32.22,32.23h135.2c13.31,0,24.74-8.07,29.66-19.59
			C1031.49,939.29,1025.15,941.42,1018.31,941.42z M1018.31,680.18h-135.2c-17.79,0-32.22-14.43-32.22-32.23V264.26
			c0-4.49,0.92-8.76,2.58-12.64c-8.37,5.81-13.84,15.5-13.84,26.46v383.69c0,17.8,14.43,32.23,32.22,32.23h135.2
			c13.31,0,24.74-8.07,29.66-19.59C1031.49,678.05,1025.15,680.18,1018.31,680.18z M843.93,165.33c-14.17,0-26.41,8.45-31.93,20.58
			c5.8-4.25,12.95-6.76,20.67-6.76h252.34V997.5h11.26V165.33H843.93z M1018.31,680.18h-135.2c-17.79,0-32.22-14.43-32.22-32.23
			V264.26c0-4.49,0.92-8.76,2.58-12.64c-8.37,5.81-13.84,15.5-13.84,26.46v383.69c0,17.8,14.43,32.23,32.22,32.23h135.2
			c13.31,0,24.74-8.07,29.66-19.59C1031.49,678.05,1025.15,680.18,1018.31,680.18z M1018.31,941.42h-135.2
			c-17.79,0-32.22-14.43-32.22-32.23V757c0-4.48,0.92-8.75,2.57-12.63c-8.36,5.82-13.83,15.5-13.83,26.45v152.19
			c0,17.8,14.43,32.23,32.22,32.23h135.2c13.31,0,24.74-8.07,29.66-19.59C1031.49,939.29,1025.15,941.42,1018.31,941.42z"/>
		<path class="st5" d="M1050.54,647.95V264.26c0-17.8-14.43-32.22-32.23-32.22h-135.2c-17.79,0-32.22,14.42-32.22,32.22v383.69
			c0,17.8,14.43,32.23,32.22,32.23h135.2C1036.11,680.18,1050.54,665.75,1050.54,647.95z"/>
		<path class="st6" d="M1036.54,647.95c0,10.05-8.18,18.23-18.23,18.23h-135.2c-10.04,0-18.22-8.18-18.22-18.23V264.26
			c0-10.05,8.18-18.22,18.22-18.22h135.2c10.05,0,18.23,8.17,18.23,18.22V647.95z"/>
		<path class="st5" d="M1050.54,909.19V757c0-17.79-14.43-32.22-32.23-32.22h-135.2c-17.79,0-32.22,14.43-32.22,32.22v152.19
			c0,17.8,14.43,32.23,32.22,32.23h135.2C1036.11,941.42,1050.54,926.99,1050.54,909.19z"/>
		<path class="st6" d="M1036.54,909.19c0,10.05-8.18,18.23-18.23,18.23h-135.2c-10.04,0-18.22-8.18-18.22-18.23V757
			c0-10.05,8.18-18.22,18.22-18.22h135.2c10.05,0,18.23,8.17,18.23,18.22V909.19z"/>
		<path class="st7" d="M1096.27,165.33V997.5H843.93c-19.33,0-35.06-15.72-35.06-35.05V200.39c0-19.34,15.73-35.06,35.06-35.06
			H1096.27z"/>
		<path class="st4" d="M843.93,1011.5c-27.09,0-49.06-21.96-49.06-49.05V200.39c0-27.1,21.97-49.06,49.06-49.06h266.34v860.17
			H843.93"/>
		<line class="st8" x1="893.19" y1="546.76" x2="956.54" y2="409.75"/>
		<line class="st8" x1="944.89" y1="546.76" x2="1008.24" y2="409.75"/>
		<g>
			<g>
				<line class="st9" x1="925.22" y1="533.76" x2="933.62" y2="515.61"/>
				<line class="st10" x1="936.09" y1="510.27" x2="942.26" y2="496.93"/>
				<line class="st11" x1="945.96" y1="488.93" x2="964.47" y2="448.9"/>
				<line class="st9" x1="968.17" y1="440.89" x2="976.56" y2="422.74"/>
			</g>
		</g>
		<line class="st8" x1="893.19" y1="901.6" x2="956.54" y2="764.6"/>
		<line class="st8" x1="944.89" y1="901.6" x2="1008.24" y2="764.6"/>
		<g>
			<g>
				<line class="st9" x1="925.22" y1="888.61" x2="933.62" y2="870.46"/>
				<line class="st10" x1="936.09" y1="865.12" x2="942.26" y2="851.78"/>
				<line class="st11" x1="945.96" y1="843.77" x2="964.47" y2="803.75"/>
				<line class="st9" x1="968.17" y1="795.74" x2="976.56" y2="777.59"/>
			</g>
		</g>
	</g>
</g>
<g id="Puerta-Der">
	<g>
		<path class="st0" d="M1425.67,200.39v762.06c0,27.09-21.97,49.05-49.06,49.05h-266.34V151.33h266.34
			C1403.7,151.33,1425.67,173.29,1425.67,200.39z M1411.67,962.45V200.39c0-19.34-15.73-35.06-35.06-35.06h-252.34V997.5h252.34
			C1395.94,997.5,1411.67,981.78,1411.67,962.45z"/>
		<path class="st1" d="M1411.67,200.39v762.06c0,19.33-15.73,35.05-35.06,35.05h-252.34V165.33h252.34
			C1395.94,165.33,1411.67,181.05,1411.67,200.39z M1369.65,909.19V757c0-17.79-14.43-32.22-32.22-32.22h-135.2
			c-17.8,0-32.23,14.43-32.23,32.22v152.19c0,17.8,14.43,32.23,32.23,32.23h135.2C1355.22,941.42,1369.65,926.99,1369.65,909.19z
			 M1369.65,647.95V264.26c0-17.8-14.43-32.22-32.22-32.22h-135.2c-17.8,0-32.23,14.42-32.23,32.22v383.69
			c0,17.8,14.43,32.23,32.23,32.23h135.2C1355.22,680.18,1369.65,665.75,1369.65,647.95z"/>
		<path class="st2" d="M1369.65,757v152.19c0,17.8-14.43,32.23-32.22,32.23h-135.2c-17.8,0-32.23-14.43-32.23-32.23V757
			c0-17.79,14.43-32.22,32.23-32.22h135.2C1355.22,724.78,1369.65,739.21,1369.65,757z M1355.65,909.19V757
			c0-10.06-8.16-18.22-18.22-18.22h-135.2c-10.07,0-18.23,8.16-18.23,18.22v152.19c0,10.07,8.16,18.23,18.23,18.23h135.2
			C1347.49,927.42,1355.65,919.26,1355.65,909.19z"/>
		<path class="st2" d="M1369.65,264.26v383.69c0,17.8-14.43,32.23-32.22,32.23h-135.2c-17.8,0-32.23-14.43-32.23-32.23V264.26
			c0-17.8,14.43-32.22,32.23-32.22h135.2C1355.22,232.04,1369.65,246.46,1369.65,264.26z M1355.65,647.95V264.26
			c0-10.07-8.16-18.22-18.22-18.22h-135.2c-10.07,0-18.23,8.15-18.23,18.22v383.69c0,10.07,8.16,18.23,18.23,18.23h135.2
			C1347.49,666.18,1355.65,658.02,1355.65,647.95z"/>
		<path class="st0" d="M1355.65,757v152.19c0,10.07-8.16,18.23-18.22,18.23h-135.2c-10.07,0-18.23-8.16-18.23-18.23V757
			c0-10.06,8.16-18.22,18.23-18.22h135.2C1347.49,738.78,1355.65,746.94,1355.65,757z"/>
		<path class="st0" d="M1355.65,264.26v383.69c0,10.07-8.16,18.23-18.22,18.23h-135.2c-10.07,0-18.23-8.16-18.23-18.23V264.26
			c0-10.07,8.16-18.22,18.23-18.22h135.2C1347.49,246.04,1355.65,254.19,1355.65,264.26z"/>
		<path class="st3" d="M1376.61,165.33h-252.34v13.82h241.08c19.33,0,35.06,15.72,35.06,35.06v762.06c0,5.16-1.12,10.06-3.13,14.47
			c8.72-6.38,14.39-16.68,14.39-28.29V200.39C1411.67,181.05,1395.94,165.33,1376.61,165.33z M1202.23,680.18
			c-17.8,0-32.23-14.43-32.23-32.23V264.26c0-4.49,0.92-8.76,2.58-12.64c-8.37,5.81-13.84,15.5-13.84,26.46v383.69
			c0,17.8,14.43,32.23,32.23,32.23h135.2c13.31,0,24.73-8.07,29.65-19.59c-5.21,3.64-11.55,5.77-18.39,5.77H1202.23z
			 M1202.23,941.42c-17.8,0-32.23-14.43-32.23-32.23V757c0-4.48,0.92-8.75,2.57-12.63c-8.36,5.82-13.83,15.5-13.83,26.45v152.19
			c0,17.8,14.43,32.23,32.23,32.23h135.2c13.31,0,24.73-8.07,29.65-19.59c-5.21,3.64-11.55,5.77-18.39,5.77H1202.23z"/>
		<line class="st4" x1="1376.61" y1="1011.5" x2="1110.27" y2="1011.5"/>
		<path class="st5" d="M1369.65,647.95c0,17.8-14.43,32.23-32.22,32.23h-135.2c-17.8,0-32.23-14.43-32.23-32.23V264.26
			c0-17.8,14.43-32.22,32.23-32.22h135.2c17.79,0,32.22,14.42,32.22,32.22V647.95z"/>
		<path class="st6" d="M1355.65,264.26c0-10.07-8.16-18.22-18.22-18.22h-135.2c-10.07,0-18.23,8.15-18.23,18.22v383.69
			c0,10.07,8.16,18.23,18.23,18.23h135.2c10.06,0,18.22-8.16,18.22-18.23V264.26z"/>
		<path class="st5" d="M1369.65,909.19c0,17.8-14.43,32.23-32.22,32.23h-135.2c-17.8,0-32.23-14.43-32.23-32.23V757
			c0-17.79,14.43-32.22,32.23-32.22h135.2c17.79,0,32.22,14.43,32.22,32.22V909.19z"/>
		<path class="st6" d="M1355.65,757c0-10.06-8.16-18.22-18.22-18.22h-135.2c-10.07,0-18.23,8.16-18.23,18.22v152.19
			c0,10.07,8.16,18.23,18.23,18.23h135.2c10.06,0,18.22-8.16,18.22-18.23V757z"/>
		<path class="st7" d="M1411.67,962.45V200.39c0-19.34-15.73-35.06-35.06-35.06h-252.34V997.5h252.34
			C1395.94,997.5,1411.67,981.78,1411.67,962.45z"/>
		<path class="st4" d="M1110.27,1011.5V151.33h266.34c27.09,0,49.06,21.96,49.06,49.06v762.06c0,27.09-21.97,49.05-49.06,49.05"/>
		<line class="st8" x1="1212.3" y1="546.76" x2="1275.65" y2="409.75"/>
		<line class="st8" x1="1264" y1="546.76" x2="1327.35" y2="409.75"/>
		<g>
			<g>
				<line class="st9" x1="1244.33" y1="533.76" x2="1252.73" y2="515.61"/>
				<line class="st10" x1="1255.2" y1="510.27" x2="1261.37" y2="496.93"/>
				<line class="st11" x1="1265.07" y1="488.93" x2="1283.58" y2="448.9"/>
				<line class="st9" x1="1287.28" y1="440.89" x2="1295.67" y2="422.74"/>
			</g>
		</g>
		<line class="st8" x1="1212.3" y1="901.6" x2="1275.65" y2="764.6"/>
		<line class="st8" x1="1264" y1="901.6" x2="1327.35" y2="764.6"/>
		<g>
			<g>
				<line class="st9" x1="1244.33" y1="888.61" x2="1252.73" y2="870.46"/>
				<line class="st10" x1="1255.2" y1="865.12" x2="1261.37" y2="851.78"/>
				<line class="st11" x1="1265.07" y1="843.77" x2="1283.58" y2="803.75"/>
				<line class="st9" x1="1287.28" y1="795.74" x2="1295.67" y2="777.59"/>
			</g>
		</g>
		<path class="st0" d="M1425.67,200.39v762.06c0,27.09-21.97,49.05-49.06,49.05h-266.34V151.33h266.34
			C1403.7,151.33,1425.67,173.29,1425.67,200.39z M1411.67,962.45V200.39c0-19.34-15.73-35.06-35.06-35.06h-252.34V997.5h252.34
			C1395.94,997.5,1411.67,981.78,1411.67,962.45z"/>
		<path class="st1" d="M1411.67,200.39v762.06c0,19.33-15.73,35.05-35.06,35.05h-252.34V165.33h252.34
			C1395.94,165.33,1411.67,181.05,1411.67,200.39z M1369.65,909.19V757c0-17.79-14.43-32.22-32.22-32.22h-135.2
			c-17.8,0-32.23,14.43-32.23,32.22v152.19c0,17.8,14.43,32.23,32.23,32.23h135.2C1355.22,941.42,1369.65,926.99,1369.65,909.19z
			 M1369.65,647.95V264.26c0-17.8-14.43-32.22-32.22-32.22h-135.2c-17.8,0-32.23,14.42-32.23,32.22v383.69
			c0,17.8,14.43,32.23,32.23,32.23h135.2C1355.22,680.18,1369.65,665.75,1369.65,647.95z"/>
		<path class="st2" d="M1369.65,757v152.19c0,17.8-14.43,32.23-32.22,32.23h-135.2c-17.8,0-32.23-14.43-32.23-32.23V757
			c0-17.79,14.43-32.22,32.23-32.22h135.2C1355.22,724.78,1369.65,739.21,1369.65,757z M1355.65,909.19V757
			c0-10.06-8.16-18.22-18.22-18.22h-135.2c-10.07,0-18.23,8.16-18.23,18.22v152.19c0,10.07,8.16,18.23,18.23,18.23h135.2
			C1347.49,927.42,1355.65,919.26,1355.65,909.19z"/>
		<path class="st2" d="M1369.65,264.26v383.69c0,17.8-14.43,32.23-32.22,32.23h-135.2c-17.8,0-32.23-14.43-32.23-32.23V264.26
			c0-17.8,14.43-32.22,32.23-32.22h135.2C1355.22,232.04,1369.65,246.46,1369.65,264.26z M1355.65,647.95V264.26
			c0-10.07-8.16-18.22-18.22-18.22h-135.2c-10.07,0-18.23,8.15-18.23,18.22v383.69c0,10.07,8.16,18.23,18.23,18.23h135.2
			C1347.49,666.18,1355.65,658.02,1355.65,647.95z"/>
		<path class="st0" d="M1355.65,757v152.19c0,10.07-8.16,18.23-18.22,18.23h-135.2c-10.07,0-18.23-8.16-18.23-18.23V757
			c0-10.06,8.16-18.22,18.23-18.22h135.2C1347.49,738.78,1355.65,746.94,1355.65,757z"/>
		<path class="st0" d="M1355.65,264.26v383.69c0,10.07-8.16,18.23-18.22,18.23h-135.2c-10.07,0-18.23-8.16-18.23-18.23V264.26
			c0-10.07,8.16-18.22,18.23-18.22h135.2C1347.49,246.04,1355.65,254.19,1355.65,264.26z"/>
		<path class="st3" d="M1376.61,165.33h-252.34v13.82h241.08c19.33,0,35.06,15.72,35.06,35.06v762.06c0,5.16-1.12,10.06-3.13,14.47
			c8.72-6.38,14.39-16.68,14.39-28.29V200.39C1411.67,181.05,1395.94,165.33,1376.61,165.33z M1202.23,680.18
			c-17.8,0-32.23-14.43-32.23-32.23V264.26c0-4.49,0.92-8.76,2.58-12.64c-8.37,5.81-13.84,15.5-13.84,26.46v383.69
			c0,17.8,14.43,32.23,32.23,32.23h135.2c13.31,0,24.73-8.07,29.65-19.59c-5.21,3.64-11.55,5.77-18.39,5.77H1202.23z
			 M1202.23,941.42c-17.8,0-32.23-14.43-32.23-32.23V757c0-4.48,0.92-8.75,2.57-12.63c-8.36,5.82-13.83,15.5-13.83,26.45v152.19
			c0,17.8,14.43,32.23,32.23,32.23h135.2c13.31,0,24.73-8.07,29.65-19.59c-5.21,3.64-11.55,5.77-18.39,5.77H1202.23z"/>
		<line class="st4" x1="1376.61" y1="1011.5" x2="1110.27" y2="1011.5"/>
		<path class="st5" d="M1369.65,647.95c0,17.8-14.43,32.23-32.22,32.23h-135.2c-17.8,0-32.23-14.43-32.23-32.23V264.26
			c0-17.8,14.43-32.22,32.23-32.22h135.2c17.79,0,32.22,14.42,32.22,32.22V647.95z"/>
		<path class="st6" d="M1355.65,264.26c0-10.07-8.16-18.22-18.22-18.22h-135.2c-10.07,0-18.23,8.15-18.23,18.22v383.69
			c0,10.07,8.16,18.23,18.23,18.23h135.2c10.06,0,18.22-8.16,18.22-18.23V264.26z"/>
		<path class="st5" d="M1369.65,909.19c0,17.8-14.43,32.23-32.22,32.23h-135.2c-17.8,0-32.23-14.43-32.23-32.23V757
			c0-17.79,14.43-32.22,32.23-32.22h135.2c17.79,0,32.22,14.43,32.22,32.22V909.19z"/>
		<path class="st6" d="M1355.65,757c0-10.06-8.16-18.22-18.22-18.22h-135.2c-10.07,0-18.23,8.16-18.23,18.22v152.19
			c0,10.07,8.16,18.23,18.23,18.23h135.2c10.06,0,18.22-8.16,18.22-18.23V757z"/>
		<path class="st7" d="M1411.67,962.45V200.39c0-19.34-15.73-35.06-35.06-35.06h-252.34V997.5h252.34
			C1395.94,997.5,1411.67,981.78,1411.67,962.45z"/>
		<path class="st4" d="M1110.27,1011.5V151.33h266.34c27.09,0,49.06,21.96,49.06,49.06v762.06c0,27.09-21.97,49.05-49.06,49.05"/>
		<line class="st8" x1="1212.3" y1="546.76" x2="1275.65" y2="409.75"/>
		<line class="st8" x1="1264" y1="546.76" x2="1327.35" y2="409.75"/>
		<g>
			<g>
				<line class="st9" x1="1244.33" y1="533.76" x2="1252.73" y2="515.61"/>
				<line class="st10" x1="1255.2" y1="510.27" x2="1261.37" y2="496.93"/>
				<line class="st11" x1="1265.07" y1="488.93" x2="1283.58" y2="448.9"/>
				<line class="st9" x1="1287.28" y1="440.89" x2="1295.67" y2="422.74"/>
			</g>
		</g>
		<line class="st8" x1="1212.3" y1="901.6" x2="1275.65" y2="764.6"/>
		<line class="st8" x1="1264" y1="901.6" x2="1327.35" y2="764.6"/>
		<g>
			<g>
				<line class="st9" x1="1244.33" y1="888.61" x2="1252.73" y2="870.46"/>
				<line class="st10" x1="1255.2" y1="865.12" x2="1261.37" y2="851.78"/>
				<line class="st11" x1="1265.07" y1="843.77" x2="1283.58" y2="803.75"/>
				<line class="st9" x1="1287.28" y1="795.74" x2="1295.67" y2="777.59"/>
			</g>
		</g>
	</g>
</g>
<g id="Vagon">
	<path class="st12" d="M782.87,195.58v699.2H0v-778.5h2220.54v778.5h-782.87v-699.2c0-31.07-25.19-56.25-56.25-56.25h-542.3
		C808.06,139.33,782.87,164.51,782.87,195.58z M1645.76,566.32c0,33.56,27.2,60.76,60.76,60.76h407.32
		c33.56,0,60.77-27.2,60.77-60.76V275.81c0-33.56-27.21-60.77-60.77-60.77h-407.32c-33.56,0-60.76,27.21-60.76,60.77V566.32z
		 M45.93,566.32c0,33.56,27.21,60.76,60.77,60.76h407.32c33.56,0,60.76-27.2,60.76-60.76V275.81c0-33.56-27.2-60.77-60.76-60.77
		H106.7c-33.56,0-60.77,27.21-60.77,60.77V566.32z"/>
	<path class="st13" d="M782.87,967.25c0,29.49,22.69,53.68,51.56,56.06v13.68h551.68v-13.68c28.87-2.38,51.56-26.57,51.56-56.06
		v-72.47h782.87V1080H0V894.78h782.87V967.25z"/>
	<rect y="2" class="st14" width="2220.54" height="116.28"/>
	<rect class="st15" width="2220.54" height="27.99"/>
	<polygon class="st16" points="0,116.28 0,894.78 0,1080 2220.54,1080 2220.54,894.78 2220.54,116.28 2220.54,0 0,0 	"/>
	<line class="st16" x1="2220.54" y1="116.28" x2="0" y2="116.28"/>
	<path class="st12" d="M782.87,195.58v699.2H0v-778.5h2220.54v778.5h-782.87v-699.2c0-31.07-25.19-56.25-56.25-56.25h-542.3
		C808.06,139.33,782.87,164.51,782.87,195.58z M1645.76,566.32c0,33.56,27.2,60.76,60.76,60.76h407.32
		c33.56,0,60.77-27.2,60.77-60.76V275.81c0-33.56-27.21-60.77-60.77-60.77h-407.32c-33.56,0-60.76,27.21-60.76,60.77V566.32z
		 M45.93,566.32c0,33.56,27.21,60.76,60.77,60.76h407.32c33.56,0,60.76-27.2,60.76-60.76V275.81c0-33.56-27.2-60.77-60.76-60.77
		H106.7c-33.56,0-60.77,27.21-60.77,60.77V566.32z"/>
	<path class="st13" d="M782.87,967.25c0,29.49,22.69,53.68,51.56,56.06v13.68h551.68v-13.68c28.87-2.38,51.56-26.57,51.56-56.06
		v-72.47h782.87V1080H0V894.78h782.87V967.25z"/>
	<rect y="2" class="st14" width="2220.54" height="116.28"/>
	<rect class="st15" width="2220.54" height="27.99"/>
	<polygon class="st16" points="0,116.28 0,894.78 0,1080 2220.54,1080 2220.54,894.78 2220.54,116.28 2220.54,0 0,0 	"/>
	<line class="st16" x1="2220.54" y1="116.28" x2="0" y2="116.28"/>
	<path class="st17" d="M2174.61,275.81v290.51c0,33.56-27.21,60.76-60.77,60.76h-407.32c-33.56,0-60.76-27.2-60.76-60.76V275.81
		c0-33.56,27.2-60.77,60.76-60.77h407.32C2147.4,215.04,2174.61,242.25,2174.61,275.81z M2160.61,566.32V370.6v-18.01v-76.78
		c0-25.83-20.94-46.77-46.77-46.77h-203.66h-203.66c-25.83,0-46.76,20.94-46.76,46.77v76.78v18.01v195.72
		c0,25.82,20.93,46.76,46.76,46.76h407.32C2139.67,613.08,2160.61,592.14,2160.61,566.32z"/>
	<path class="st0" d="M2160.61,370.6v195.72c0,25.82-20.94,46.76-46.77,46.76h-407.32c-25.83,0-46.76-20.94-46.76-46.76V370.6
		H2160.61z"/>
	<polygon class="st1" points="2160.61,352.59 2160.61,370.6 1659.76,370.6 1659.76,352.59 1910.18,352.59 	"/>
	<path class="st0" d="M2160.61,275.81v76.78h-250.43V229.04h203.66C2139.67,229.04,2160.61,249.98,2160.61,275.81z M2144.62,322.62
		v-50.54h-11.3v50.54H2144.62z"/>
	<rect x="2133.32" y="272.08" class="st18" width="11.3" height="50.54"/>
	<path class="st0" d="M1910.18,229.04v123.55h-250.42v-76.78c0-25.83,20.93-46.77,46.76-46.77H1910.18z M1687.05,322.62v-50.54
		h-11.31v50.54H1687.05z"/>
	<rect x="1675.74" y="272.08" class="st18" width="11.31" height="50.54"/>
	<path class="st17" d="M574.78,275.81v290.51c0,33.56-27.2,60.76-60.76,60.76H106.7c-33.56,0-60.77-27.2-60.77-60.76V275.81
		c0-33.56,27.21-60.77,60.77-60.77h407.32C547.58,215.04,574.78,242.25,574.78,275.81z M560.78,566.32V370.6v-18.01v-76.78
		c0-25.79-20.97-46.77-46.76-46.77H310.36H106.7c-25.79,0-46.77,20.98-46.77,46.77v76.78v18.01v195.72
		c0,25.78,20.98,46.76,46.77,46.76h407.32C539.81,613.08,560.78,592.1,560.78,566.32z"/>
	<path class="st0" d="M560.78,370.6v195.72c0,25.78-20.97,46.76-46.76,46.76H106.7c-25.79,0-46.77-20.98-46.77-46.76V370.6H560.78z"
		/>
	<polygon class="st1" points="560.78,352.59 560.78,370.6 59.93,370.6 59.93,352.59 310.36,352.59 	"/>
	<path class="st0" d="M560.78,275.81v76.78H310.36V229.04h203.66C539.81,229.04,560.78,250.02,560.78,275.81z M544.39,322.62v-50.54
		h-11.3v50.54H544.39z"/>
	<rect x="533.09" y="272.08" class="st18" width="11.3" height="50.54"/>
	<path class="st0" d="M310.36,229.04v123.55H59.93v-76.78c0-25.79,20.98-46.77,46.77-46.77H310.36z M86.82,322.62v-50.54H75.51
		v50.54H86.82z"/>
	<rect x="75.51" y="272.08" class="st18" width="11.31" height="50.54"/>
	<line class="st7" x1="1659.76" y1="370.6" x2="2160.61" y2="370.6"/>
	<line class="st7" x1="2160.61" y1="352.59" x2="1910.18" y2="352.59"/>
	<line class="st4" x1="1910.18" y1="229.04" x2="1910.18" y2="352.59"/>
	<path class="st5" d="M574.78,566.32c0,33.56-27.2,60.76-60.76,60.76H106.7c-33.56,0-60.77-27.2-60.77-60.76V275.81
		c0-33.56,27.21-60.77,60.77-60.77h407.32c33.56,0,60.76,27.21,60.76,60.77V566.32z"/>
	<path class="st5" d="M2174.61,566.32V275.81c0-33.56-27.21-60.77-60.77-60.77h-407.32c-33.56,0-60.76,27.21-60.76,60.77v290.51
		c0,33.56,27.2,60.76,60.76,60.76h407.32C2147.4,627.08,2174.61,599.88,2174.61,566.32z"/>
	<line class="st4" x1="310.36" y1="229.04" x2="310.36" y2="352.59"/>
	<rect x="533.09" y="272.08" class="st16" width="11.3" height="50.54"/>
	<rect x="75.51" y="272.08" class="st16" width="11.31" height="50.54"/>
	<rect x="2133.32" y="272.08" class="st7" width="11.3" height="50.54"/>
	<rect x="1675.74" y="272.08" class="st7" width="11.31" height="50.54"/>
	<line class="st16" x1="1437.67" y1="894.78" x2="2220.54" y2="894.78"/>
	<line class="st16" x1="0" y1="894.78" x2="782.87" y2="894.78"/>
	<polyline class="st16" points="59.93,352.59 310.36,352.59 560.78,352.59 	"/>
	<line class="st16" x1="560.78" y1="370.6" x2="59.93" y2="370.6"/>
	<line class="st8" x1="162.63" y1="546.76" x2="303.63" y2="409.75"/>
	<line class="st8" x1="277.69" y1="546.76" x2="418.68" y2="409.75"/>
	<g>
		<g>
			<line class="st9" x1="233.93" y1="533.76" x2="248.27" y2="519.83"/>
			<line class="st19" x1="254.38" y1="513.89" x2="269.66" y2="499.04"/>
			<line class="st20" x1="278.83" y1="490.13" x2="324.67" y2="445.59"/>
			<line class="st9" x1="333.84" y1="436.68" x2="348.19" y2="422.74"/>
		</g>
	</g>
	<line class="st8" x1="1779.35" y1="546.76" x2="1920.34" y2="409.75"/>
	<line class="st8" x1="1894.4" y1="546.76" x2="2035.4" y2="409.75"/>
	<g>
		<g>
			<line class="st9" x1="1850.64" y1="533.76" x2="1864.98" y2="519.83"/>
			<line class="st19" x1="1871.09" y1="513.89" x2="1886.37" y2="499.04"/>
			<line class="st20" x1="1895.54" y1="490.13" x2="1941.38" y2="445.59"/>
			<line class="st9" x1="1950.55" y1="436.68" x2="1964.9" y2="422.74"/>
		</g>
	</g>
	<path class="st17" d="M2174.61,275.81v290.51c0,33.56-27.21,60.76-60.77,60.76h-407.32c-33.56,0-60.76-27.2-60.76-60.76V275.81
		c0-33.56,27.2-60.77,60.76-60.77h407.32C2147.4,215.04,2174.61,242.25,2174.61,275.81z M2160.61,566.32V370.6v-18.01v-76.78
		c0-25.83-20.94-46.77-46.77-46.77h-203.66h-203.66c-25.83,0-46.76,20.94-46.76,46.77v76.78v18.01v195.72
		c0,25.82,20.93,46.76,46.76,46.76h407.32C2139.67,613.08,2160.61,592.14,2160.61,566.32z"/>
	<path class="st0" d="M2160.61,370.6v195.72c0,25.82-20.94,46.76-46.77,46.76h-407.32c-25.83,0-46.76-20.94-46.76-46.76V370.6
		H2160.61z"/>
	<polygon class="st1" points="2160.61,352.59 2160.61,370.6 1659.76,370.6 1659.76,352.59 1910.18,352.59 	"/>
	<path class="st0" d="M2160.61,275.81v76.78h-250.43V229.04h203.66C2139.67,229.04,2160.61,249.98,2160.61,275.81z M2144.62,322.62
		v-50.54h-11.3v50.54H2144.62z"/>
	<rect x="2133.32" y="272.08" class="st18" width="11.3" height="50.54"/>
	<path class="st0" d="M1910.18,229.04v123.55h-250.42v-76.78c0-25.83,20.93-46.77,46.76-46.77H1910.18z M1687.05,322.62v-50.54
		h-11.31v50.54H1687.05z"/>
	<rect x="1675.74" y="272.08" class="st18" width="11.31" height="50.54"/>
	<path class="st17" d="M574.78,275.81v290.51c0,33.56-27.2,60.76-60.76,60.76H106.7c-33.56,0-60.77-27.2-60.77-60.76V275.81
		c0-33.56,27.21-60.77,60.77-60.77h407.32C547.58,215.04,574.78,242.25,574.78,275.81z M560.78,566.32V370.6v-18.01v-76.78
		c0-25.79-20.97-46.77-46.76-46.77H310.36H106.7c-25.79,0-46.77,20.98-46.77,46.77v76.78v18.01v195.72
		c0,25.78,20.98,46.76,46.77,46.76h407.32C539.81,613.08,560.78,592.1,560.78,566.32z"/>
	<path class="st0" d="M560.78,370.6v195.72c0,25.78-20.97,46.76-46.76,46.76H106.7c-25.79,0-46.77-20.98-46.77-46.76V370.6H560.78z"
		/>
	<polygon class="st1" points="560.78,352.59 560.78,370.6 59.93,370.6 59.93,352.59 310.36,352.59 	"/>
	<path class="st0" d="M560.78,275.81v76.78H310.36V229.04h203.66C539.81,229.04,560.78,250.02,560.78,275.81z M544.39,322.62v-50.54
		h-11.3v50.54H544.39z"/>
	<rect x="533.09" y="272.08" class="st18" width="11.3" height="50.54"/>
	<path class="st0" d="M310.36,229.04v123.55H59.93v-76.78c0-25.79,20.98-46.77,46.77-46.77H310.36z M86.82,322.62v-50.54H75.51
		v50.54H86.82z"/>
	<rect x="75.51" y="272.08" class="st18" width="11.31" height="50.54"/>
	<line class="st7" x1="1659.76" y1="370.6" x2="2160.61" y2="370.6"/>
	<line class="st7" x1="2160.61" y1="352.59" x2="1910.18" y2="352.59"/>
	<line class="st4" x1="1910.18" y1="229.04" x2="1910.18" y2="352.59"/>
	<path class="st5" d="M574.78,566.32c0,33.56-27.2,60.76-60.76,60.76H106.7c-33.56,0-60.77-27.2-60.77-60.76V275.81
		c0-33.56,27.21-60.77,60.77-60.77h407.32c33.56,0,60.76,27.21,60.76,60.77V566.32z"/>
	<path class="st5" d="M2174.61,566.32V275.81c0-33.56-27.21-60.77-60.77-60.77h-407.32c-33.56,0-60.76,27.21-60.76,60.77v290.51
		c0,33.56,27.2,60.76,60.76,60.76h407.32C2147.4,627.08,2174.61,599.88,2174.61,566.32z"/>
	<line class="st4" x1="310.36" y1="229.04" x2="310.36" y2="352.59"/>
	<rect x="533.09" y="272.08" class="st16" width="11.3" height="50.54"/>
	<rect x="75.51" y="272.08" class="st16" width="11.31" height="50.54"/>
	<rect x="2133.32" y="272.08" class="st7" width="11.3" height="50.54"/>
	<rect x="1675.74" y="272.08" class="st7" width="11.31" height="50.54"/>
	<line class="st16" x1="1437.67" y1="894.78" x2="2220.54" y2="894.78"/>
	<line class="st16" x1="0" y1="894.78" x2="782.87" y2="894.78"/>
	<polyline class="st16" points="59.93,352.59 310.36,352.59 560.78,352.59 	"/>
	<line class="st16" x1="560.78" y1="370.6" x2="59.93" y2="370.6"/>
	<line class="st8" x1="162.63" y1="546.76" x2="303.63" y2="409.75"/>
	<line class="st8" x1="277.69" y1="546.76" x2="418.68" y2="409.75"/>
	<g>
		<g>
			<line class="st9" x1="233.93" y1="533.76" x2="248.27" y2="519.83"/>
			<line class="st19" x1="254.38" y1="513.89" x2="269.66" y2="499.04"/>
			<line class="st20" x1="278.83" y1="490.13" x2="324.67" y2="445.59"/>
			<line class="st9" x1="333.84" y1="436.68" x2="348.19" y2="422.74"/>
		</g>
	</g>
	<line class="st8" x1="1779.35" y1="546.76" x2="1920.34" y2="409.75"/>
	<line class="st8" x1="1894.4" y1="546.76" x2="2035.4" y2="409.75"/>
	<g>
		<g>
			<line class="st9" x1="1850.64" y1="533.76" x2="1864.98" y2="519.83"/>
			<line class="st19" x1="1871.09" y1="513.89" x2="1886.37" y2="499.04"/>
			<line class="st20" x1="1895.54" y1="490.13" x2="1941.38" y2="445.59"/>
			<line class="st9" x1="1950.55" y1="436.68" x2="1964.9" y2="422.74"/>
		</g>
	</g>
	<path class="st0" d="M794.87,962.45c0,27.09,21.97,49.05,49.06,49.05h266.34h266.34c27.09,0,49.06-21.96,49.06-49.05V200.39
		c0-27.1-21.97-49.06-49.06-49.06h-266.34H843.93c-27.09,0-49.06,21.96-49.06,49.06V962.45z M1437.67,195.58v699.2v72.47
		c0,29.49-22.69,53.68-51.56,56.06v13.68H834.43v-13.68c-28.87-2.38-51.56-26.57-51.56-56.06v-72.47v-699.2
		c0-31.07,25.19-56.25,56.25-56.25h542.3C1412.48,139.33,1437.67,164.51,1437.67,195.58z"/>
	<polyline class="st16" points="834.43,1019.63 834.43,1036.99 1386.11,1036.99 1386.11,1018.3 	"/>
	<path class="st0" d="M794.87,962.45c0,27.09,21.97,49.05,49.06,49.05h266.34h266.34c27.09,0,49.06-21.96,49.06-49.05V200.39
		c0-27.1-21.97-49.06-49.06-49.06h-266.34H843.93c-27.09,0-49.06,21.96-49.06,49.06V962.45z M1437.67,195.58v699.2v72.47
		c0,29.49-22.69,53.68-51.56,56.06v13.68H834.43v-13.68c-28.87-2.38-51.56-26.57-51.56-56.06v-72.47v-699.2
		c0-31.07,25.19-56.25,56.25-56.25h542.3C1412.48,139.33,1437.67,164.51,1437.67,195.58z"/>
	<polyline class="st16" points="834.43,1019.63 834.43,1036.99 1386.11,1036.99 1386.11,1018.3 	"/>
</g>
</svg>
