<?xml version="1.0" encoding="utf-8"?>
<!-- Generator: Adobe Illustrator 18.0.0, SVG Export Plug-In . SVG Version: 6.00 Build 0)  -->
<!DOCTYPE svg PUBLIC "-//W3C//DTD SVG 1.1//EN" "http://www.w3.org/Graphics/SVG/1.1/DTD/svg11.dtd">
<svg version="1.1" id="Capa_1" xmlns="http://www.w3.org/2000/svg" xmlns:xlink="http://www.w3.org/1999/xlink" x="0px" y="0px"
	 viewBox="471 0 654.5 900" enable-background="new 471 0 654.5 900" xml:space="preserve">
<g id="Puerta-Der">
	<g>
		<path fill="#2C2A26" d="M1130.5-197.5v1600c0,56.9-46.1,102.9-103,102.9H468.3v-1806h559.2
			C1084.3-300.5,1130.5-254.4,1130.5-197.5z M1101.1,1402.5v-1600c0-40.6-33-73.7-73.7-73.7H497.6V1476h529.8
			C1068,1476.1,1101.1,1443.1,1101.1,1402.5z"/>
		<path fill="#41403C" d="M1101.1-197.5v1600c0,40.6-33,73.6-73.7,73.6H497.6V-271.2h529.8C1068-271.1,1101.1-238.2,1101.1-197.5z
			 M1012.9,1290.7V971.1c0-37.4-30.3-67.6-67.6-67.6H661.4c-37.4,0-67.7,30.3-67.7,67.6v319.6c0,37.4,30.3,67.7,67.7,67.7h283.9
			C982.6,1358.3,1012.9,1328,1012.9,1290.7z M1012.9,742.1V-63.4c0-37.4-30.3-67.6-67.6-67.6H661.4c-37.4,0-67.7,30.3-67.7,67.6
			v805.6c0,37.4,30.3,67.7,67.7,67.7h283.9C982.6,809.8,1012.9,779.5,1012.9,742.1z"/>
		<path fill="#575552" d="M1012.9-63.4v805.6c0,37.4-30.3,67.7-67.6,67.7H661.4c-37.4,0-67.7-30.3-67.7-67.7V-63.4
			c0-37.4,30.3-67.6,67.7-67.6h283.9C982.6-131,1012.9-100.8,1012.9-63.4z M983.5,742.1V-63.4c0-21.1-17.1-38.2-38.2-38.2H661.4
			c-21.1,0-38.3,17.1-38.3,38.2v805.6c0,21.1,17.1,38.3,38.3,38.3h283.9C966.3,780.5,983.5,763.3,983.5,742.1z"/>
		<path fill="#2C2A26" d="M983.5-63.4v805.6c0,21.1-17.1,38.3-38.2,38.3H661.4c-21.1,0-38.3-17.1-38.3-38.3V-63.4
			c0-21.1,17.1-38.2,38.3-38.2h283.9C966.3-101.7,983.5-84.6,983.5-63.4z"/>
		<path fill="#373531" d="M1027.4-271.1H497.6v29h506.2c40.6,0,73.7,33,73.7,73.7v1600c0,10.8-2.4,21.1-6.6,30.4
			c18.3-13.4,30.2-35,30.2-59.4V-197.5C1101.1-238.2,1068-271.1,1027.4-271.1z M661.4,809.8c-37.4,0-67.7-30.3-67.7-67.7V-63.4
			c0-9.5,2-18.4,5.4-26.6C581.5-77.7,570-57.4,570-34.4v805.6c0,37.4,30.3,67.7,67.7,67.7h283.9c27.9,0,51.9-16.9,62.2-41.1
			c-10.9,7.7-24.3,12.1-38.6,12.1H661.4z M661.4,1358.3c-37.4,0-67.7-30.3-67.7-67.7V971.1c0-9.4,2-18.4,5.4-26.5
			c-17.5,12.3-29,32.5-29,55.5v319.6c0,37.4,30.3,67.7,67.7,67.7h283.9c27.9,0,51.9-16.9,62.2-41.1c-10.9,7.7-24.3,12.1-38.6,12.1
			L661.4,1358.3L661.4,1358.3z"/>
		<path fill="none" stroke="#2C2A26" stroke-width="6" stroke-miterlimit="10" d="M1012.9,742.1c0,37.4-30.3,67.7-67.6,67.7H661.4
			c-37.4,0-67.7-30.3-67.7-67.7V-63.4c0-37.4,30.3-67.6,67.7-67.6h283.9c37.4,0,67.6,30.3,67.6,67.6L1012.9,742.1L1012.9,742.1z"/>
		<path fill="none" d="M983.5-63.4c0-21.1-17.1-38.2-38.2-38.2H661.4c-21.1,0-38.3,17.1-38.3,38.2v805.6c0,21.1,17.1,38.3,38.3,38.3
			h283.9c21.1,0,38.2-17.1,38.2-38.3V-63.4L983.5-63.4z"/>
		<path fill="none" stroke="#2C2A26" stroke-width="4" stroke-miterlimit="10" d="M1101.1,1402.5v-1600c0-40.6-33-73.7-73.7-73.7
			H497.6V1476h529.8C1068,1476.1,1101.1,1443.1,1101.1,1402.5z"/>
		<path fill="none" stroke="#D8D9CF" stroke-width="4" stroke-miterlimit="10" d="M468.3,1505.5v-1806h559.2
			c56.9,0,103,46.1,103,103v1600c0,56.9-46.1,102.9-103,102.9"/>
		
			<line fill="none" stroke="#D8D9CF" stroke-width="7" stroke-linecap="round" stroke-miterlimit="10" x1="682.5" y1="529.7" x2="815.5" y2="242.1"/>
		
			<line fill="none" stroke="#D8D9CF" stroke-width="7" stroke-linecap="round" stroke-miterlimit="10" x1="791.1" y1="529.7" x2="924.1" y2="242.1"/>
		<g>
			<g>
				
					<line fill="none" stroke="#D8D9CF" stroke-width="4" stroke-linecap="round" stroke-miterlimit="10" x1="749.8" y1="502.5" x2="767.4" y2="464.3"/>
				
					<line fill="none" stroke="#D8D9CF" stroke-width="4" stroke-linecap="round" stroke-miterlimit="10" stroke-dasharray="5.88,17.64" x1="772.6" y1="453.1" x2="785.5" y2="425.1"/>
				
					<line fill="none" stroke="#D8D9CF" stroke-width="4" stroke-linecap="round" stroke-miterlimit="10" stroke-dasharray="23.5199,5.88,5.88,17.64" x1="793.3" y1="408.3" x2="832.2" y2="324.2"/>
				
					<line fill="none" stroke="#D8D9CF" stroke-width="4" stroke-linecap="round" stroke-miterlimit="10" x1="839.9" y1="307.5" x2="857.6" y2="269.3"/>
			</g>
		</g>
		<path fill="#2C2A26" d="M1130.5-197.5v1600c0,56.9-46.1,102.9-103,102.9H468.3v-1806h559.2
			C1084.3-300.5,1130.5-254.4,1130.5-197.5z M1101.1,1402.5v-1600c0-40.6-33-73.7-73.7-73.7H497.6V1476h529.8
			C1068,1476.1,1101.1,1443.1,1101.1,1402.5z"/>
		<path fill="#41403C" d="M1101.1-197.5v1600c0,40.6-33,73.6-73.7,73.6H497.6V-271.2h529.8C1068-271.1,1101.1-238.2,1101.1-197.5z
			 M1012.9,1290.7V971.1c0-37.4-30.3-67.6-67.6-67.6H661.4c-37.4,0-67.7,30.3-67.7,67.6v319.6c0,37.4,30.3,67.7,67.7,67.7h283.9
			C982.6,1358.3,1012.9,1328,1012.9,1290.7z M1012.9,742.1V-63.4c0-37.4-30.3-67.6-67.6-67.6H661.4c-37.4,0-67.7,30.3-67.7,67.6
			v805.6c0,37.4,30.3,67.7,67.7,67.7h283.9C982.6,809.8,1012.9,779.5,1012.9,742.1z"/>
		<path fill="#575552" d="M1012.9-63.4v805.6c0,37.4-30.3,67.7-67.6,67.7H661.4c-37.4,0-67.7-30.3-67.7-67.7V-63.4
			c0-37.4,30.3-67.6,67.7-67.6h283.9C982.6-131,1012.9-100.8,1012.9-63.4z M983.5,742.1V-63.4c0-21.1-17.1-38.2-38.2-38.2H661.4
			c-21.1,0-38.3,17.1-38.3,38.2v805.6c0,21.1,17.1,38.3,38.3,38.3h283.9C966.3,780.5,983.5,763.3,983.5,742.1z"/>
		<path fill="#2C2A26" d="M983.5-63.4v805.6c0,21.1-17.1,38.3-38.2,38.3H661.4c-21.1,0-38.3-17.1-38.3-38.3V-63.4
			c0-21.1,17.1-38.2,38.3-38.2h283.9C966.3-101.7,983.5-84.6,983.5-63.4z"/>
		<path fill="#373531" d="M1027.4-271.1H497.6v29h506.2c40.6,0,73.7,33,73.7,73.7v1600c0,10.8-2.4,21.1-6.6,30.4
			c18.3-13.4,30.2-35,30.2-59.4V-197.5C1101.1-238.2,1068-271.1,1027.4-271.1z M661.4,809.8c-37.4,0-67.7-30.3-67.7-67.7V-63.4
			c0-9.5,2-18.4,5.4-26.6C581.5-77.7,570-57.4,570-34.4v805.6c0,37.4,30.3,67.7,67.7,67.7h283.9c27.9,0,51.9-16.9,62.2-41.1
			c-10.9,7.7-24.3,12.1-38.6,12.1H661.4z M661.4,1358.3c-37.4,0-67.7-30.3-67.7-67.7V971.1c0-9.4,2-18.4,5.4-26.5
			c-17.5,12.3-29,32.5-29,55.5v319.6c0,37.4,30.3,67.7,67.7,67.7h283.9c27.9,0,51.9-16.9,62.2-41.1c-10.9,7.7-24.3,12.1-38.6,12.1
			L661.4,1358.3L661.4,1358.3z"/>
		<path fill="none" stroke="#2C2A26" stroke-width="6" stroke-miterlimit="10" d="M1012.9,742.1c0,37.4-30.3,67.7-67.6,67.7H661.4
			c-37.4,0-67.7-30.3-67.7-67.7V-63.4c0-37.4,30.3-67.6,67.7-67.6h283.9c37.4,0,67.6,30.3,67.6,67.6L1012.9,742.1L1012.9,742.1z"/>
		<path fill="none" d="M983.5-63.4c0-21.1-17.1-38.2-38.2-38.2H661.4c-21.1,0-38.3,17.1-38.3,38.2v805.6c0,21.1,17.1,38.3,38.3,38.3
			h283.9c21.1,0,38.2-17.1,38.2-38.3V-63.4L983.5-63.4z"/>
		<path fill="none" stroke="#2C2A26" stroke-width="4" stroke-miterlimit="10" d="M1101.1,1402.5v-1600c0-40.6-33-73.7-73.7-73.7
			H497.6V1476h529.8C1068,1476.1,1101.1,1443.1,1101.1,1402.5z"/>
		<path fill="none" stroke="#D8D9CF" stroke-width="4" stroke-miterlimit="10" d="M468.3,1505.5v-1806h559.2
			c56.9,0,103,46.1,103,103v1600c0,56.9-46.1,102.9-103,102.9"/>
		
			<line fill="none" stroke="#D8D9CF" stroke-width="15" stroke-linecap="round" stroke-miterlimit="10" x1="682.5" y1="529.7" x2="815.5" y2="242.1"/>
		
			<line fill="none" stroke="#D8D9CF" stroke-width="15" stroke-linecap="round" stroke-miterlimit="10" x1="791.1" y1="529.7" x2="924.1" y2="242.1"/>
		<g>
			<g>
				
					<line fill="none" stroke="#D8D9CF" stroke-width="6" stroke-linecap="round" stroke-miterlimit="10" x1="749.8" y1="502.5" x2="767.4" y2="464.3"/>
				
					<line fill="none" stroke="#D8D9CF" stroke-width="6" stroke-linecap="round" stroke-miterlimit="10" stroke-dasharray="5.88,17.64" x1="772.6" y1="453.1" x2="785.5" y2="425.1"/>
				
					<line fill="none" stroke="#D8D9CF" stroke-width="6" stroke-linecap="round" stroke-miterlimit="10" stroke-dasharray="23.5199,5.88,5.88,17.64" x1="793.3" y1="408.3" x2="832.2" y2="324.2"/>
				
					<line fill="none" stroke="#D8D9CF" stroke-width="6" stroke-linecap="round" stroke-miterlimit="10" x1="839.9" y1="307.5" x2="857.6" y2="269.3"/>
			</g>
		</g>
	</g>
</g>
</svg>
