<?xml version="1.0" encoding="utf-8"?>
<!-- Generator: Adobe Illustrator 18.0.0, SVG Export Plug-In . SVG Version: 6.00 Build 0)  -->
<!DOCTYPE svg PUBLIC "-//W3C//DTD SVG 1.1//EN" "http://www.w3.org/Graphics/SVG/1.1/DTD/svg11.dtd">
<svg version="1.1" id="Capa_1" xmlns="http://www.w3.org/2000/svg" xmlns:xlink="http://www.w3.org/1999/xlink" x="0px" y="0px"
	 viewBox="0 0 766.2 1057" enable-background="new 0 0 766.2 1057" xml:space="preserve">
<g id="Puerta-Der">
	<g>
		<path fill="#2C2A26" d="M114.5-352.9h656.7v2121H114.5c-66.8,0-121-54.1-121-120.9V-232C-6.5-298.8,47.7-352.9,114.5-352.9z
			 M114.5,1733.6h622.2v-2052H114.5C66.8-318.4,28-279.7,28-232v1879.1C28,1694.8,66.8,1733.6,114.5,1733.6z"/>
		<path fill="#41403C" d="M114.5-318.4h622.2v2052H114.5c-47.7,0-86.5-38.8-86.5-86.4V-232C28-279.7,66.8-318.4,114.5-318.4z
			 M211.1,1595.3h333.4c43.9,0,79.5-35.6,79.5-79.5v-375.3c0-43.9-35.6-79.4-79.5-79.4H211.1c-43.9,0-79.4,35.6-79.4,79.4v375.3
			C131.6,1559.7,167.2,1595.3,211.1,1595.3z M211.1,951.1h333.4c43.9,0,79.5-35.6,79.5-79.5V-74.5c0-43.9-35.6-79.4-79.5-79.4H211.1
			c-43.9,0-79.4,35.6-79.4,79.4v946.1C131.6,915.5,167.2,951.1,211.1,951.1z"/>
		<path fill="#575552" d="M211.1-153.9h333.4c43.9,0,79.5,35.6,79.5,79.4v946.1c0,43.9-35.6,79.5-79.5,79.5H211.1
			c-43.9,0-79.4-35.6-79.4-79.5V-74.5C131.6-118.4,167.2-153.9,211.1-153.9z M211.1,916.6h333.4c24.8,0,45-20.1,45-45V-74.5
			c0-24.8-20.1-44.9-45-44.9H211.1c-24.8,0-44.9,20.1-44.9,44.9v946.1C166.2,896.5,186.3,916.6,211.1,916.6z"/>
		<path fill="#2C2A26" d="M211.1-119.4h333.4c24.8,0,45,20.1,45,44.9v946.1c0,24.8-20.1,45-45,45H211.1c-24.8,0-44.9-20.1-44.9-45
			V-74.5C166.2-99.3,186.3-119.4,211.1-119.4z"/>
		<path fill="#373531" d="M28-232v1879.1c0,28.6,14,54,35.5,69.8c-5-10.9-7.7-23-7.7-35.7V-197.9c0-47.7,38.8-86.5,86.5-86.5h594.5
			v-34.1H114.5C66.8-318.4,28-279.7,28-232z M211.1,951.1c-16.9,0-32.5-5.3-45.3-14.2c12.1,28.4,40.3,48.3,73.1,48.3h333.4
			c43.9,0,79.5-35.6,79.5-79.5V-40.4c0-27-13.5-50.9-34.1-65.2c4.1,9.6,6.4,20.1,6.4,31.2v946.1c0,43.9-35.6,79.5-79.5,79.5H211.1z
			 M211.1,1595.3c-16.9,0-32.5-5.3-45.3-14.2c12.1,28.4,40.3,48.3,73.1,48.3h333.4c43.9,0,79.5-35.6,79.5-79.5v-375.3
			c0-27-13.5-50.9-34.1-65.2c4.1,9.6,6.3,20.1,6.3,31.1v375.3c0,43.9-35.6,79.5-79.5,79.5H211.1z"/>
		<path fill="none" stroke="#2C2A26" stroke-width="6" stroke-miterlimit="10" d="M131.6-74.5c0-43.9,35.6-79.4,79.4-79.4h333.4
			c43.9,0,79.5,35.6,79.5,79.4v946.1c0,43.9-35.6,79.5-79.5,79.5H211.1c-43.9,0-79.4-35.6-79.4-79.5V-74.5z"/>
		<path fill="none" d="M166.2,871.6c0,24.8,20.1,45,44.9,45h333.4c24.8,0,45-20.1,45-45V-74.5c0-24.8-20.1-44.9-45-44.9H211.1
			c-24.8,0-44.9,20.1-44.9,44.9V871.6z"/>
		<path fill="none" stroke="#2C2A26" stroke-width="4" stroke-miterlimit="10" d="M114.5,1733.6h622.2v-2052H114.5
			C66.8-318.4,28-279.7,28-232v1879.1C28,1694.8,66.8,1733.6,114.5,1733.6z"/>
		<path fill="none" stroke="#D8D9CF" stroke-width="4" stroke-miterlimit="10" d="M114.5,1768.1c-66.8,0-121-54.1-121-120.9V-232
			c0-66.8,54.2-121,121-121h656.7v2121"/>
		
			<line fill="none" stroke="#D8D9CF" stroke-width="7" stroke-linecap="round" stroke-miterlimit="10" x1="363.4" y1="284.3" x2="519.6" y2="622.1"/>
		
			<line fill="none" stroke="#D8D9CF" stroke-width="7" stroke-linecap="round" stroke-miterlimit="10" x1="235.9" y1="284.3" x2="392.1" y2="622.1"/>
		<g>
			<g>
				
					<line fill="none" stroke="#D8D9CF" stroke-width="4" stroke-linecap="round" stroke-miterlimit="10" x1="419.9" y1="545.3" x2="440.7" y2="590.1"/>
				
					<line fill="none" stroke="#D8D9CF" stroke-width="4" stroke-linecap="round" stroke-miterlimit="10" stroke-dasharray="5.88,17.64" x1="398.6" y1="499.3" x2="413.8" y2="532.1"/>
				
					<line fill="none" stroke="#D8D9CF" stroke-width="4" stroke-linecap="round" stroke-miterlimit="10" stroke-dasharray="23.5199,5.88,5.88,17.64" x1="343.9" y1="380.8" x2="389.5" y2="479.5"/>
				
					<line fill="none" stroke="#D8D9CF" stroke-width="4" stroke-linecap="round" stroke-miterlimit="10" x1="314.1" y1="316.3" x2="334.7" y2="361.1"/>
			</g>
		</g>
		<path fill="#2C2A26" d="M114.5-352.9h656.7v2121H114.5c-66.8,0-121-54.1-121-120.9V-232C-6.5-298.8,47.7-352.9,114.5-352.9z
			 M114.5,1733.6h622.2v-2052H114.5C66.8-318.4,28-279.7,28-232v1879.1C28,1694.8,66.8,1733.6,114.5,1733.6z"/>
		<path fill="#41403C" d="M114.5-318.4h622.2v2052H114.5c-47.7,0-86.5-38.8-86.5-86.4V-232C28-279.7,66.8-318.4,114.5-318.4z
			 M211.1,1595.3h333.4c43.9,0,79.5-35.6,79.5-79.5v-375.3c0-43.9-35.6-79.4-79.5-79.4H211.1c-43.9,0-79.4,35.6-79.4,79.4v375.3
			C131.6,1559.7,167.2,1595.3,211.1,1595.3z M211.1,951.1h333.4c43.9,0,79.5-35.6,79.5-79.5V-74.5c0-43.9-35.6-79.4-79.5-79.4H211.1
			c-43.9,0-79.4,35.6-79.4,79.4v946.1C131.6,915.5,167.2,951.1,211.1,951.1z"/>
		<path fill="#575552" d="M211.1-153.9h333.4c43.9,0,79.5,35.6,79.5,79.4v946.1c0,43.9-35.6,79.5-79.5,79.5H211.1
			c-43.9,0-79.4-35.6-79.4-79.5V-74.5C131.6-118.4,167.2-153.9,211.1-153.9z M211.1,916.6h333.4c24.8,0,45-20.1,45-45V-74.5
			c0-24.8-20.1-44.9-45-44.9H211.1c-24.8,0-44.9,20.1-44.9,44.9v946.1C166.2,896.5,186.3,916.6,211.1,916.6z"/>
		<path fill="#2C2A26" d="M211.1-119.4h333.4c24.8,0,45,20.1,45,44.9v946.1c0,24.8-20.1,45-45,45H211.1c-24.8,0-44.9-20.1-44.9-45
			V-74.5C166.2-99.3,186.3-119.4,211.1-119.4z"/>
		<path fill="#373531" d="M28-232v1879.1c0,28.6,14,54,35.5,69.8c-5-10.9-7.7-23-7.7-35.7V-197.9c0-47.7,38.8-86.5,86.5-86.5h594.5
			v-34.1H114.5C66.8-318.4,28-279.7,28-232z M211.1,951.1c-16.9,0-32.5-5.3-45.3-14.2c12.1,28.4,40.3,48.3,73.1,48.3h333.4
			c43.9,0,79.5-35.6,79.5-79.5V-40.4c0-27-13.5-50.9-34.1-65.2c4.1,9.6,6.4,20.1,6.4,31.2v946.1c0,43.9-35.6,79.5-79.5,79.5H211.1z
			 M211.1,1595.3c-16.9,0-32.5-5.3-45.3-14.2c12.1,28.4,40.3,48.3,73.1,48.3h333.4c43.9,0,79.5-35.6,79.5-79.5v-375.3
			c0-27-13.5-50.9-34.1-65.2c4.1,9.6,6.3,20.1,6.3,31.1v375.3c0,43.9-35.6,79.5-79.5,79.5H211.1z"/>
		<path fill="none" stroke="#2C2A26" stroke-width="6" stroke-miterlimit="10" d="M131.6-74.5c0-43.9,35.6-79.4,79.4-79.4h333.4
			c43.9,0,79.5,35.6,79.5,79.4v946.1c0,43.9-35.6,79.5-79.5,79.5H211.1c-43.9,0-79.4-35.6-79.4-79.5V-74.5z"/>
		<path fill="none" d="M166.2,871.6c0,24.8,20.1,45,44.9,45h333.4c24.8,0,45-20.1,45-45V-74.5c0-24.8-20.1-44.9-45-44.9H211.1
			c-24.8,0-44.9,20.1-44.9,44.9V871.6z"/>
		<path fill="none" stroke="#2C2A26" stroke-width="4" stroke-miterlimit="10" d="M114.5,1733.6h622.2v-2052H114.5
			C66.8-318.4,28-279.7,28-232v1879.1C28,1694.8,66.8,1733.6,114.5,1733.6z"/>
		<path fill="none" stroke="#D8D9CF" stroke-width="4" stroke-miterlimit="10" d="M114.5,1768.1c-66.8,0-121-54.1-121-120.9V-232
			c0-66.8,54.2-121,121-121h656.7v2121"/>
		
			<line fill="none" stroke="#D8D9CF" stroke-width="7" stroke-linecap="round" stroke-miterlimit="10" x1="363.4" y1="284.3" x2="519.6" y2="622.1"/>
		
			<line fill="none" stroke="#D8D9CF" stroke-width="7" stroke-linecap="round" stroke-miterlimit="10" x1="235.9" y1="284.3" x2="392.1" y2="622.1"/>
		<g>
			<g>
				
					<line fill="none" stroke="#D8D9CF" stroke-width="4" stroke-linecap="round" stroke-miterlimit="10" x1="419.9" y1="545.3" x2="440.7" y2="590.1"/>
				
					<line fill="none" stroke="#D8D9CF" stroke-width="4" stroke-linecap="round" stroke-miterlimit="10" stroke-dasharray="5.88,17.64" x1="398.6" y1="499.3" x2="413.8" y2="532.1"/>
				
					<line fill="none" stroke="#D8D9CF" stroke-width="4" stroke-linecap="round" stroke-miterlimit="10" stroke-dasharray="23.5199,5.88,5.88,17.64" x1="343.9" y1="380.8" x2="389.5" y2="479.5"/>
				
					<line fill="none" stroke="#D8D9CF" stroke-width="4" stroke-linecap="round" stroke-miterlimit="10" x1="314.1" y1="316.3" x2="334.7" y2="361.1"/>
			</g>
		</g>
	</g>
</g>
</svg>
