<?xml version="1.0" encoding="utf-8"?>
<!-- Generator: Adobe Illustrator 18.0.0, SVG Export Plug-In . SVG Version: 6.00 Build 0)  -->
<!DOCTYPE svg PUBLIC "-//W3C//DTD SVG 1.1//EN" "http://www.w3.org/Graphics/SVG/1.1/DTD/svg11.dtd">
<svg version="1.1" id="Capa_1" xmlns="http://www.w3.org/2000/svg" xmlns:xlink="http://www.w3.org/1999/xlink" x="0px" y="0px"
	 viewBox="575.7 267.3 221.3 311.7" enable-background="new 575.7 267.3 221.3 311.7" xml:space="preserve">
<g id="Puerta-Izq">
	<g>
		<path fill="#2C2A26" d="M800,169.9v619.8H608.1c-19.5,0-35.3-15.8-35.3-35.3V205.3c0-19.5,15.8-35.3,35.3-35.3H800z M789.9,779.6
			V180H608.1c-13.9,0-25.3,11.3-25.3,25.3v549.1c0,13.9,11.3,25.3,25.3,25.3H789.9z"/>
		<path fill="#41403C" d="M789.9,180v599.6H608.1c-13.9,0-25.3-11.3-25.3-25.3V205.3c0-13.9,11.3-25.3,25.3-25.3H789.9z M757,716
			V606.4c0-12.8-10.4-23.2-23.2-23.2h-97.4c-12.8,0-23.2,10.4-23.2,23.2V716c0,12.8,10.4,23.2,23.2,23.2h97.4
			C746.6,739.2,757,728.8,757,716z M757,527.8V251.3c0-12.8-10.4-23.2-23.2-23.2h-97.4c-12.8,0-23.2,10.4-23.2,23.2v276.5
			c0,12.8,10.4,23.2,23.2,23.2h97.4C746.6,551,757,540.6,757,527.8z"/>
		<path fill="#575552" d="M757,251.3v276.5c0,12.8-10.4,23.2-23.2,23.2h-97.4c-12.8,0-23.2-10.4-23.2-23.2V251.3
			c0-12.8,10.4-23.2,23.2-23.2h97.4C746.6,228.1,757,238.5,757,251.3z M746.9,527.8V251.3c0-7.2-5.9-13.1-13.1-13.1h-97.4
			c-7.2,0-13.1,5.9-13.1,13.1v276.5c0,7.2,5.9,13.1,13.1,13.1h97.4C741,540.9,746.9,535,746.9,527.8z"/>
		<path fill="#2C2A26" d="M746.9,251.3v276.5c0,7.2-5.9,13.1-13.1,13.1h-97.4c-7.2,0-13.1-5.9-13.1-13.1V251.3
			c0-7.2,5.9-13.1,13.1-13.1h97.4C741,238.2,746.9,244.1,746.9,251.3z"/>
		<path fill="#373531" d="M733.7,739.2h-97.4c-12.8,0-23.2-10.4-23.2-23.2V606.4c0-3.2,0.7-6.3,1.9-9.1c-6,4.2-10,11.2-10,19.1V726
			c0,12.8,10.4,23.2,23.2,23.2h97.4c9.6,0,17.8-5.8,21.4-14.1C743.2,737.7,738.7,739.2,733.7,739.2z M733.7,551h-97.4
			c-12.8,0-23.2-10.4-23.2-23.2V251.3c0-3.2,0.7-6.3,1.9-9.1c-6,4.2-10,11.2-10,19.1v276.5c0,12.8,10.4,23.2,23.2,23.2h97.4
			c9.6,0,17.8-5.8,21.4-14.1C743.2,549.5,738.7,551,733.7,551z M608.1,180c-10.2,0-19,6.1-23,14.8c4.2-3.1,9.3-4.9,14.9-4.9h181.8
			v589.7h8.1V180H608.1z M733.7,551h-97.4c-12.8,0-23.2-10.4-23.2-23.2V251.3c0-3.2,0.7-6.3,1.9-9.1c-6,4.2-10,11.2-10,19.1v276.5
			c0,12.8,10.4,23.2,23.2,23.2h97.4c9.6,0,17.8-5.8,21.4-14.1C743.2,549.5,738.7,551,733.7,551z M733.7,739.2h-97.4
			c-12.8,0-23.2-10.4-23.2-23.2V606.4c0-3.2,0.7-6.3,1.9-9.1c-6,4.2-10,11.2-10,19.1V726c0,12.8,10.4,23.2,23.2,23.2h97.4
			c9.6,0,17.8-5.8,21.4-14.1C743.2,737.7,738.7,739.2,733.7,739.2z"/>
		<path fill="none" stroke="#2C2A26" stroke-width="6" stroke-miterlimit="10" d="M757,527.8V251.3c0-12.8-10.4-23.2-23.2-23.2
			h-97.4c-12.8,0-23.2,10.4-23.2,23.2v276.5c0,12.8,10.4,23.2,23.2,23.2h97.4C746.6,551,757,540.6,757,527.8z"/>
		<path fill="none" d="M746.9,527.8c0,7.2-5.9,13.1-13.1,13.1h-97.4c-7.2,0-13.1-5.9-13.1-13.1V251.3c0-7.2,5.9-13.1,13.1-13.1h97.4
			c7.2,0,13.1,5.9,13.1,13.1V527.8z"/>
		<path fill="none" stroke="#2C2A26" stroke-width="4" stroke-miterlimit="10" d="M789.9,180v599.6H608.1
			c-13.9,0-25.3-11.3-25.3-25.3V205.3c0-13.9,11.3-25.3,25.3-25.3H789.9z"/>
		<path fill="none" stroke="#D8D9CF" stroke-width="4" stroke-miterlimit="10" d="M608.1,789.7c-19.5,0-35.3-15.8-35.3-35.3V205.3
			c0-19.5,15.8-35.3,35.3-35.3H800"/>
		
			<line fill="none" stroke="#D8D9CF" stroke-width="7" stroke-linecap="round" stroke-miterlimit="10" x1="643.6" y1="454.9" x2="689.2" y2="356.1"/>
		
			<line fill="none" stroke="#D8D9CF" stroke-width="7" stroke-linecap="round" stroke-miterlimit="10" x1="680.8" y1="454.9" x2="726.5" y2="356.1"/>
		<g>
			<g>
				
					<line fill="none" stroke="#D8D9CF" stroke-width="4" stroke-linecap="round" stroke-miterlimit="10" x1="666.7" y1="445.5" x2="672.7" y2="432.4"/>
				
					<line fill="none" stroke="#D8D9CF" stroke-width="4" stroke-linecap="round" stroke-miterlimit="10" stroke-dasharray="5.88,17.64" x1="674.5" y1="428.6" x2="678.9" y2="419"/>
				
					<line fill="none" stroke="#D8D9CF" stroke-width="4" stroke-linecap="round" stroke-miterlimit="10" stroke-dasharray="23.5199,5.88,5.88,17.64" x1="681.6" y1="413.2" x2="694.9" y2="384.4"/>
				
					<line fill="none" stroke="#D8D9CF" stroke-width="4" stroke-linecap="round" stroke-miterlimit="10" x1="697.6" y1="378.6" x2="703.7" y2="365.5"/>
			</g>
		</g>
		<path fill="#2C2A26" d="M800,169.9v619.8H608.1c-19.5,0-35.3-15.8-35.3-35.3V205.3c0-19.5,15.8-35.3,35.3-35.3H800z M789.9,779.6
			V180H608.1c-13.9,0-25.3,11.3-25.3,25.3v549.1c0,13.9,11.3,25.3,25.3,25.3H789.9z"/>
		<path fill="#41403C" d="M789.9,180v599.6H608.1c-13.9,0-25.3-11.3-25.3-25.3V205.3c0-13.9,11.3-25.3,25.3-25.3H789.9z M757,716
			V606.4c0-12.8-10.4-23.2-23.2-23.2h-97.4c-12.8,0-23.2,10.4-23.2,23.2V716c0,12.8,10.4,23.2,23.2,23.2h97.4
			C746.6,739.2,757,728.8,757,716z M757,527.8V251.3c0-12.8-10.4-23.2-23.2-23.2h-97.4c-12.8,0-23.2,10.4-23.2,23.2v276.5
			c0,12.8,10.4,23.2,23.2,23.2h97.4C746.6,551,757,540.6,757,527.8z"/>
		<path fill="#575552" d="M757,251.3v276.5c0,12.8-10.4,23.2-23.2,23.2h-97.4c-12.8,0-23.2-10.4-23.2-23.2V251.3
			c0-12.8,10.4-23.2,23.2-23.2h97.4C746.6,228.1,757,238.5,757,251.3z M746.9,527.8V251.3c0-7.2-5.9-13.1-13.1-13.1h-97.4
			c-7.2,0-13.1,5.9-13.1,13.1v276.5c0,7.2,5.9,13.1,13.1,13.1h97.4C741,540.9,746.9,535,746.9,527.8z"/>
		<path fill="#2C2A26" d="M746.9,251.3v276.5c0,7.2-5.9,13.1-13.1,13.1h-97.4c-7.2,0-13.1-5.9-13.1-13.1V251.3
			c0-7.2,5.9-13.1,13.1-13.1h97.4C741,238.2,746.9,244.1,746.9,251.3z"/>
		<path fill="#373531" d="M733.7,739.2h-97.4c-12.8,0-23.2-10.4-23.2-23.2V606.4c0-3.2,0.7-6.3,1.9-9.1c-6,4.2-10,11.2-10,19.1V726
			c0,12.8,10.4,23.2,23.2,23.2h97.4c9.6,0,17.8-5.8,21.4-14.1C743.2,737.7,738.7,739.2,733.7,739.2z M733.7,551h-97.4
			c-12.8,0-23.2-10.4-23.2-23.2V251.3c0-3.2,0.7-6.3,1.9-9.1c-6,4.2-10,11.2-10,19.1v276.5c0,12.8,10.4,23.2,23.2,23.2h97.4
			c9.6,0,17.8-5.8,21.4-14.1C743.2,549.5,738.7,551,733.7,551z M608.1,180c-10.2,0-19,6.1-23,14.8c4.2-3.1,9.3-4.9,14.9-4.9h181.8
			v589.7h8.1V180H608.1z M733.7,551h-97.4c-12.8,0-23.2-10.4-23.2-23.2V251.3c0-3.2,0.7-6.3,1.9-9.1c-6,4.2-10,11.2-10,19.1v276.5
			c0,12.8,10.4,23.2,23.2,23.2h97.4c9.6,0,17.8-5.8,21.4-14.1C743.2,549.5,738.7,551,733.7,551z M733.7,739.2h-97.4
			c-12.8,0-23.2-10.4-23.2-23.2V606.4c0-3.2,0.7-6.3,1.9-9.1c-6,4.2-10,11.2-10,19.1V726c0,12.8,10.4,23.2,23.2,23.2h97.4
			c9.6,0,17.8-5.8,21.4-14.1C743.2,737.7,738.7,739.2,733.7,739.2z"/>
		<path fill="none" stroke="#2C2A26" stroke-width="6" stroke-miterlimit="10" d="M757,527.8V251.3c0-12.8-10.4-23.2-23.2-23.2
			h-97.4c-12.8,0-23.2,10.4-23.2,23.2v276.5c0,12.8,10.4,23.2,23.2,23.2h97.4C746.6,551,757,540.6,757,527.8z"/>
		<path fill="none" d="M746.9,527.8c0,7.2-5.9,13.1-13.1,13.1h-97.4c-7.2,0-13.1-5.9-13.1-13.1V251.3c0-7.2,5.9-13.1,13.1-13.1h97.4
			c7.2,0,13.1,5.9,13.1,13.1V527.8z"/>
		<path fill="none" stroke="#2C2A26" stroke-width="4" stroke-miterlimit="10" d="M789.9,180v599.6H608.1
			c-13.9,0-25.3-11.3-25.3-25.3V205.3c0-13.9,11.3-25.3,25.3-25.3H789.9z"/>
		<path fill="none" stroke="#D8D9CF" stroke-width="4" stroke-miterlimit="10" d="M608.1,789.7c-19.5,0-35.3-15.8-35.3-35.3V205.3
			c0-19.5,15.8-35.3,35.3-35.3H800v619.8H608.1"/>
		
			<line fill="none" stroke="#D8D9CF" stroke-width="5" stroke-linecap="round" stroke-miterlimit="10" x1="643.6" y1="454.9" x2="689.2" y2="356.1"/>
		
			<line fill="none" stroke="#D8D9CF" stroke-width="5" stroke-linecap="round" stroke-miterlimit="10" x1="680.8" y1="454.9" x2="726.5" y2="356.1"/>
		<g>
			<g>
				
					<line fill="none" stroke="#D8D9CF" stroke-width="3" stroke-linecap="round" stroke-miterlimit="10" x1="666.7" y1="445.5" x2="672.7" y2="432.4"/>
				
					<line fill="none" stroke="#D8D9CF" stroke-width="3" stroke-linecap="round" stroke-miterlimit="10" stroke-dasharray="5.88,17.64" x1="674.5" y1="428.6" x2="678.9" y2="419"/>
				
					<line fill="none" stroke="#D8D9CF" stroke-width="3" stroke-linecap="round" stroke-miterlimit="10" stroke-dasharray="23.5199,5.88,5.88,17.64" x1="681.6" y1="413.2" x2="694.9" y2="384.4"/>
				
					<line fill="none" stroke="#D8D9CF" stroke-width="3" stroke-linecap="round" stroke-miterlimit="10" x1="697.6" y1="378.6" x2="703.7" y2="365.5"/>
			</g>
		</g>
	</g>
</g>
<g id="Vagon">
	<path fill="#A6CD6D" d="M564.1,201.8v503.8H0V144.7h1600v560.9h-564.1V201.8c0-22.4-18.2-40.5-40.5-40.5H604.6
		C582.2,161.3,564.1,179.4,564.1,201.8z M1185.8,469c0,24.2,19.6,43.8,43.8,43.8h293.5c24.2,0,43.8-19.6,43.8-43.8V259.6
		c0-24.2-19.6-43.8-43.8-43.8h-293.5c-24.2,0-43.8,19.6-43.8,43.8V469z M33.1,469c0,24.2,19.6,43.8,43.8,43.8h293.5
		c24.2,0,43.8-19.6,43.8-43.8V259.6c0-24.2-19.6-43.8-43.8-43.8H76.9c-24.2,0-43.8,19.6-43.8,43.8C33.1,259.6,33.1,469,33.1,469z"/>
	<polygon fill="none" stroke="#2C2A26" stroke-width="5" stroke-miterlimit="10" points="0,144.7 0,705.6 0,839.1 1600,839.1 
		1600,705.6 1600,144.7 1600,60.9 0,60.9 	"/>
	<path fill="#A6CD6D" d="M564.1,201.8v503.8H0V144.7h1600v560.9h-564.1V201.8c0-22.4-18.2-40.5-40.5-40.5H604.6
		C582.2,161.3,564.1,179.4,564.1,201.8z M1185.8,469c0,24.2,19.6,43.8,43.8,43.8h293.5c24.2,0,43.8-19.6,43.8-43.8V259.6
		c0-24.2-19.6-43.8-43.8-43.8h-293.5c-24.2,0-43.8,19.6-43.8,43.8V469z M33.1,469c0,24.2,19.6,43.8,43.8,43.8h293.5
		c24.2,0,43.8-19.6,43.8-43.8V259.6c0-24.2-19.6-43.8-43.8-43.8H76.9c-24.2,0-43.8,19.6-43.8,43.8C33.1,259.6,33.1,469,33.1,469z"/>
	<polygon fill="none" stroke="#2C2A26" stroke-width="5" stroke-miterlimit="10" points="0,144.7 0,705.6 0,839.1 1600,839.1 
		1600,705.6 1600,144.7 1600,60.9 0,60.9 	"/>
	<path fill="#2C2A26" d="M572.7,754.4c0,19.5,15.8,35.3,35.3,35.3H800h191.9c19.5,0,35.4-15.8,35.4-35.3V205.3
		c0-19.5-15.8-35.3-35.4-35.3H800H608.1c-19.5,0-35.3,15.8-35.3,35.3V754.4z M1035.9,201.8v503.8v52.2c0,21.2-16.3,38.7-37.2,40.4
		v9.9H601.2v-9.9c-20.8-1.7-37.2-19.1-37.2-40.4v-52.2V201.8c0-22.4,18.2-40.5,40.5-40.5h390.8
		C1017.8,161.3,1035.9,179.4,1035.9,201.8z"/>
	<path fill="#2C2A26" d="M572.7,754.4c0,19.5,15.8,35.3,35.3,35.3H800h191.9c19.5,0,35.4-15.8,35.4-35.3V205.3
		c0-19.5-15.8-35.3-35.4-35.3H800H608.1c-19.5,0-35.3,15.8-35.3,35.3V754.4z M1035.9,201.8v503.8v52.2c0,21.2-16.3,38.7-37.2,40.4
		v9.9H601.2v-9.9c-20.8-1.7-37.2-19.1-37.2-40.4v-52.2V201.8c0-22.4,18.2-40.5,40.5-40.5h390.8
		C1017.8,161.3,1035.9,179.4,1035.9,201.8z"/>
</g>
</svg>
