<?xml version="1.0" encoding="utf-8"?>
<!-- Generator: Adobe Illustrator 18.0.0, SVG Export Plug-In . SVG Version: 6.00 Build 0)  -->
<!DOCTYPE svg PUBLIC "-//W3C//DTD SVG 1.1//EN" "http://www.w3.org/Graphics/SVG/1.1/DTD/svg11.dtd">
<svg version="1.1" id="Capa_1" xmlns="http://www.w3.org/2000/svg" xmlns:xlink="http://www.w3.org/1999/xlink" x="0px" y="0px"
	 viewBox="0 0 766.2 1057" enable-background="new 0 0 766.2 1057" xml:space="preserve">
<g id="Puerta-Der">
	<g>
		<path fill="#2C2A26" d="M771.2-232v1879.1c0,66.8-54.2,120.9-121,120.9H-6.5v-2121h656.7C717-352.9,771.2-298.8,771.2-232z
			 M736.7,1647.1V-232c0-47.7-38.8-86.5-86.5-86.5H28v2052h622.2C697.9,1733.6,736.7,1694.8,736.7,1647.1z"/>
		<path fill="#41403C" d="M736.7-232v1879.1c0,47.7-38.8,86.4-86.5,86.4H28v-2052h622.2C697.9-318.4,736.7-279.7,736.7-232z
			 M633.1,1515.8v-375.3c0-43.9-35.6-79.4-79.4-79.4H220.3c-43.9,0-79.5,35.6-79.5,79.4v375.3c0,43.9,35.6,79.5,79.5,79.5h333.4
			C597.5,1595.3,633.1,1559.7,633.1,1515.8z M633.1,871.6V-74.5c0-43.9-35.6-79.4-79.4-79.4H220.3c-43.9,0-79.5,35.6-79.5,79.4
			v946.1c0,43.9,35.6,79.5,79.5,79.5h333.4C597.5,951.1,633.1,915.5,633.1,871.6z"/>
		<path fill="#575552" d="M633.1-74.5v946.1c0,43.9-35.6,79.5-79.4,79.5H220.3c-43.9,0-79.5-35.6-79.5-79.5V-74.5
			c0-43.9,35.6-79.4,79.5-79.4h333.4C597.5-153.9,633.1-118.4,633.1-74.5z M598.6,871.6V-74.5c0-24.8-20.1-44.9-44.9-44.9H220.3
			c-24.8,0-45,20.1-45,44.9v946.1c0,24.8,20.1,45,45,45h333.4C578.4,916.6,598.6,896.5,598.6,871.6z"/>
		<path fill="#2C2A26" d="M598.6-74.5v946.1c0,24.8-20.1,45-44.9,45H220.3c-24.8,0-45-20.1-45-45V-74.5c0-24.8,20.1-44.9,45-44.9
			h333.4C578.4-119.4,598.6-99.3,598.6-74.5z"/>
		<path fill="#373531" d="M650.2-318.4H28v34.1h594.5c47.7,0,86.5,38.8,86.5,86.5v1879.1c0,12.7-2.8,24.8-7.7,35.7
			c21.5-15.7,35.5-41.1,35.5-69.8V-232C736.7-279.7,697.9-318.4,650.2-318.4z M220.3,951.1c-43.9,0-79.5-35.6-79.5-79.5V-74.5
			c0-11.1,2.3-21.6,6.4-31.2C126.5-91.3,113-67.4,113-40.4v946.1c0,43.9,35.6,79.5,79.5,79.5h333.4c32.8,0,61-19.9,73.1-48.3
			c-12.8,9-28.5,14.2-45.3,14.2H220.3z M220.3,1595.3c-43.9,0-79.5-35.6-79.5-79.5v-375.3c0-11,2.3-21.6,6.3-31.1
			c-20.6,14.4-34.1,38.2-34.1,65.2v375.3c0,43.9,35.6,79.5,79.5,79.5h333.4c32.8,0,61-19.9,73.1-48.3c-12.8,9-28.5,14.2-45.3,14.2
			H220.3z"/>
		<path fill="none" stroke="#2C2A26" stroke-width="6" stroke-miterlimit="10" d="M633.1,871.6c0,43.9-35.6,79.5-79.4,79.5H220.3
			c-43.9,0-79.5-35.6-79.5-79.5V-74.5c0-43.9,35.6-79.4,79.5-79.4h333.4c43.9,0,79.4,35.6,79.4,79.4V871.6z"/>
		<path fill="none" d="M598.6-74.5c0-24.8-20.1-44.9-44.9-44.9H220.3c-24.8,0-45,20.1-45,44.9v946.1c0,24.8,20.1,45,45,45h333.4
			c24.8,0,44.9-20.1,44.9-45V-74.5z"/>
		<path fill="none" stroke="#2C2A26" stroke-width="4" stroke-miterlimit="10" d="M736.7,1647.1V-232c0-47.7-38.8-86.5-86.5-86.5H28
			v2052h622.2C697.9,1733.6,736.7,1694.8,736.7,1647.1z"/>
		<path fill="none" stroke="#D8D9CF" stroke-width="4" stroke-miterlimit="10" d="M-6.5,1768.1v-2121h656.7c66.8,0,121,54.1,121,121
			v1879.1c0,66.8-54.2,120.9-121,120.9"/>
		
			<line fill="none" stroke="#D8D9CF" stroke-width="7" stroke-linecap="round" stroke-miterlimit="10" x1="245.1" y1="622.1" x2="401.3" y2="284.3"/>
		
			<line fill="none" stroke="#D8D9CF" stroke-width="7" stroke-linecap="round" stroke-miterlimit="10" x1="372.6" y1="622.1" x2="528.8" y2="284.3"/>
		<g>
			<g>
				
					<line fill="none" stroke="#D8D9CF" stroke-width="4" stroke-linecap="round" stroke-miterlimit="10" x1="324.1" y1="590.1" x2="344.8" y2="545.3"/>
				
					<line fill="none" stroke="#D8D9CF" stroke-width="4" stroke-linecap="round" stroke-miterlimit="10" stroke-dasharray="5.88,17.64" x1="350.9" y1="532.1" x2="366.1" y2="499.3"/>
				
					<line fill="none" stroke="#D8D9CF" stroke-width="4" stroke-linecap="round" stroke-miterlimit="10" stroke-dasharray="23.5199,5.88,5.88,17.64" x1="375.2" y1="479.5" x2="420.9" y2="380.8"/>
				
					<line fill="none" stroke="#D8D9CF" stroke-width="4" stroke-linecap="round" stroke-miterlimit="10" x1="430" y1="361.1" x2="450.7" y2="316.3"/>
			</g>
		</g>
		<path fill="#2C2A26" d="M771.2-232v1879.1c0,66.8-54.2,120.9-121,120.9H-6.5v-2121h656.7C717-352.9,771.2-298.8,771.2-232z
			 M736.7,1647.1V-232c0-47.7-38.8-86.5-86.5-86.5H28v2052h622.2C697.9,1733.6,736.7,1694.8,736.7,1647.1z"/>
		<path fill="#41403C" d="M736.7-232v1879.1c0,47.7-38.8,86.4-86.5,86.4H28v-2052h622.2C697.9-318.4,736.7-279.7,736.7-232z
			 M633.1,1515.8v-375.3c0-43.9-35.6-79.4-79.4-79.4H220.3c-43.9,0-79.5,35.6-79.5,79.4v375.3c0,43.9,35.6,79.5,79.5,79.5h333.4
			C597.5,1595.3,633.1,1559.7,633.1,1515.8z M633.1,871.6V-74.5c0-43.9-35.6-79.4-79.4-79.4H220.3c-43.9,0-79.5,35.6-79.5,79.4
			v946.1c0,43.9,35.6,79.5,79.5,79.5h333.4C597.5,951.1,633.1,915.5,633.1,871.6z"/>
		<path fill="#575552" d="M633.1-74.5v946.1c0,43.9-35.6,79.5-79.4,79.5H220.3c-43.9,0-79.5-35.6-79.5-79.5V-74.5
			c0-43.9,35.6-79.4,79.5-79.4h333.4C597.5-153.9,633.1-118.4,633.1-74.5z M598.6,871.6V-74.5c0-24.8-20.1-44.9-44.9-44.9H220.3
			c-24.8,0-45,20.1-45,44.9v946.1c0,24.8,20.1,45,45,45h333.4C578.4,916.6,598.6,896.5,598.6,871.6z"/>
		<path fill="#2C2A26" d="M598.6-74.5v946.1c0,24.8-20.1,45-44.9,45H220.3c-24.8,0-45-20.1-45-45V-74.5c0-24.8,20.1-44.9,45-44.9
			h333.4C578.4-119.4,598.6-99.3,598.6-74.5z"/>
		<path fill="#373531" d="M650.2-318.4H28v34.1h594.5c47.7,0,86.5,38.8,86.5,86.5v1879.1c0,12.7-2.8,24.8-7.7,35.7
			c21.5-15.7,35.5-41.1,35.5-69.8V-232C736.7-279.7,697.9-318.4,650.2-318.4z M220.3,951.1c-43.9,0-79.5-35.6-79.5-79.5V-74.5
			c0-11.1,2.3-21.6,6.4-31.2C126.5-91.3,113-67.4,113-40.4v946.1c0,43.9,35.6,79.5,79.5,79.5h333.4c32.8,0,61-19.9,73.1-48.3
			c-12.8,9-28.5,14.2-45.3,14.2H220.3z M220.3,1595.3c-43.9,0-79.5-35.6-79.5-79.5v-375.3c0-11,2.3-21.6,6.3-31.1
			c-20.6,14.4-34.1,38.2-34.1,65.2v375.3c0,43.9,35.6,79.5,79.5,79.5h333.4c32.8,0,61-19.9,73.1-48.3c-12.8,9-28.5,14.2-45.3,14.2
			H220.3z"/>
		<path fill="none" stroke="#2C2A26" stroke-width="6" stroke-miterlimit="10" d="M633.1,871.6c0,43.9-35.6,79.5-79.4,79.5H220.3
			c-43.9,0-79.5-35.6-79.5-79.5V-74.5c0-43.9,35.6-79.4,79.5-79.4h333.4c43.9,0,79.4,35.6,79.4,79.4V871.6z"/>
		<path fill="none" d="M598.6-74.5c0-24.8-20.1-44.9-44.9-44.9H220.3c-24.8,0-45,20.1-45,44.9v946.1c0,24.8,20.1,45,45,45h333.4
			c24.8,0,44.9-20.1,44.9-45V-74.5z"/>
		<path fill="none" stroke="#2C2A26" stroke-width="4" stroke-miterlimit="10" d="M736.7,1647.1V-232c0-47.7-38.8-86.5-86.5-86.5H28
			v2052h622.2C697.9,1733.6,736.7,1694.8,736.7,1647.1z"/>
		<path fill="none" stroke="#D8D9CF" stroke-width="4" stroke-miterlimit="10" d="M-6.5,1768.1v-2121h656.7c66.8,0,121,54.1,121,121
			v1879.1c0,66.8-54.2,120.9-121,120.9"/>
		
			<line fill="none" stroke="#D8D9CF" stroke-width="7" stroke-linecap="round" stroke-miterlimit="10" x1="245.1" y1="622.1" x2="401.3" y2="284.3"/>
		
			<line fill="none" stroke="#D8D9CF" stroke-width="7" stroke-linecap="round" stroke-miterlimit="10" x1="372.6" y1="622.1" x2="528.8" y2="284.3"/>
		<g>
			<g>
				
					<line fill="none" stroke="#D8D9CF" stroke-width="4" stroke-linecap="round" stroke-miterlimit="10" x1="324.1" y1="590.1" x2="344.8" y2="545.3"/>
				
					<line fill="none" stroke="#D8D9CF" stroke-width="4" stroke-linecap="round" stroke-miterlimit="10" stroke-dasharray="5.88,17.64" x1="350.9" y1="532.1" x2="366.1" y2="499.3"/>
				
					<line fill="none" stroke="#D8D9CF" stroke-width="4" stroke-linecap="round" stroke-miterlimit="10" stroke-dasharray="23.5199,5.88,5.88,17.64" x1="375.2" y1="479.5" x2="420.9" y2="380.8"/>
				
					<line fill="none" stroke="#D8D9CF" stroke-width="4" stroke-linecap="round" stroke-miterlimit="10" x1="430" y1="361.1" x2="450.7" y2="316.3"/>
			</g>
		</g>
	</g>
</g>
</svg>
