<?xml version="1.0" encoding="utf-8"?>
<!-- Generator: Adobe Illustrator 28.0.0, SVG Export Plug-In . SVG Version: 6.00 Build 0)  -->
<svg version="1.1" id="Capa_1" xmlns="http://www.w3.org/2000/svg" xmlns:xlink="http://www.w3.org/1999/xlink" x="0px" y="0px"
	 viewBox="0 0 140.05 29.06" style="enable-background:new 0 0 140.05 29.06;" xml:space="preserve">
<style type="text/css">
	.st0{fill:#292621;}
	.st1{enable-background:new    ;}
	.st2{fill:#D9DAD0;}
	.st3{fill:#FC6E53;}
</style>
<g>
	<path class="st0" d="M136.45,29.04H3.68c-2,0-3.63-1.62-3.63-3.63V3.72c0-2,1.62-3.63,3.63-3.63h132.77c2,0,3.63,1.62,3.63,3.63
		v21.7C140.08,27.42,138.46,29.04,136.45,29.04z"/>
	<g class="st1">
		<path class="st2" d="M41.86,21.32l-1.52-3.08c-0.96-2-1.54-2.54-2.62-2.54h-1.56v5.62h-2.54V7.82h5.14c3.04,0,4.7,1.4,4.7,3.74
			c0,1.68-1.02,2.9-2.88,3.38v0.04c1.04,0.62,1.58,1.36,2.32,2.9l1.76,3.44H41.86z M38,9.44h-1.84v4.58h1.88
			c1.64,0,2.74-0.8,2.74-2.32C40.78,10.46,40.06,9.44,38,9.44z"/>
		<path class="st2" d="M47.09,21.32V7.82h8.28l0.16,1.82h-5.9v3.76h5.42v1.8h-5.42v4.3H56l-0.16,1.82H47.09z"/>
		<path class="st2" d="M64.34,21.58c-5.2,0-6.86-3.04-6.86-6.96c0-4.1,2.26-7.06,6.74-7.06c1.6,0,3.04,0.4,3.98,1.02l0.22,1.66
			c-1.04-0.5-2.2-0.74-3.34-0.74c-3.34,0-4.84,2.06-4.84,5.22c0,3.1,1.16,5.08,4.16,5.08c0.66,0,1.34-0.1,1.9-0.3v-3.18l-2.02-0.22
			v-1.42h4.5v6.22C67.5,21.32,65.86,21.58,64.34,21.58z"/>
		<path class="st2" d="M80.02,21.32l-1.52-3.08c-0.96-2-1.54-2.54-2.62-2.54h-1.56v5.62h-2.54V7.82h5.14c3.04,0,4.7,1.4,4.7,3.74
			c0,1.68-1.02,2.9-2.88,3.38v0.04c1.04,0.62,1.58,1.36,2.32,2.9l1.76,3.44H80.02z M76.15,9.44h-1.84v4.58h1.88
			c1.64,0,2.74-0.8,2.74-2.32C78.94,10.46,78.21,9.44,76.15,9.44z"/>
		<path class="st2" d="M85.25,21.32V7.82h8.28l0.16,1.82h-5.9v3.76h5.42v1.8H87.8v4.3h6.36L94,21.32H85.25z"/>
		<path class="st2" d="M99.73,21.58c-1.28,0-2.6-0.26-3.68-0.9l-0.2-1.66c1.02,0.44,2.32,0.64,3.36,0.64c2.08,0,2.82-0.9,2.82-1.9
			c0-2.66-6.24-1.78-6.24-6.34c0-2.52,1.88-3.86,4.52-3.86c1.32,0,2.58,0.34,3.42,0.88l0.18,1.64c-0.86-0.36-1.98-0.6-3.1-0.6
			c-1.72,0-2.46,0.74-2.46,1.74c0,2.62,6.22,1.7,6.22,6.36C104.58,20.22,102.6,21.58,99.73,21.58z"/>
		<path class="st2" d="M115.36,21.32l-1.18-3.48h-5.12l-1.18,3.48h-2.38l4.68-13.5h3.28l4.6,13.5H115.36z M112.81,13.6
			c-0.42-1.26-0.82-2.54-1.16-3.78h-0.02c-0.36,1.26-0.78,2.5-1.2,3.78l-0.84,2.44h4.06L112.81,13.6z"/>
		<path class="st2" d="M128.44,21.32l-1.52-3.08c-0.96-2-1.54-2.54-2.62-2.54h-1.56v5.62h-2.54V7.82h5.14c3.04,0,4.7,1.4,4.7,3.74
			c0,1.68-1.02,2.9-2.88,3.38v0.04c1.04,0.62,1.58,1.36,2.32,2.9l1.76,3.44H128.44z M124.57,9.44h-1.84v4.58h1.88
			c1.64,0,2.74-0.8,2.74-2.32C127.36,10.46,126.63,9.44,124.57,9.44z"/>
	</g>
	<g class="st1">
		<path class="st3" d="M17.76,7.04c-1.68,2.02-3.42,4.45-4.59,6.3h11.86v2.46H13.17c1.18,1.82,2.91,4.26,4.59,6.3h-2.55
			c-1.99-2.13-4.45-5.4-5.96-7.53c1.51-2.13,3.98-5.4,5.96-7.53H17.76z"/>
	</g>
</g>
</svg>
