<?xml version="1.0" encoding="utf-8"?>
<!-- Generator: Adobe Illustrator 28.0.0, SVG Export Plug-In . SVG Version: 6.00 Build 0)  -->
<svg version="1.1" id="Capa_1" xmlns="http://www.w3.org/2000/svg" xmlns:xlink="http://www.w3.org/1999/xlink" x="0px" y="0px"
	 viewBox="0 0 211.59 58.83" style="enable-background:new 0 0 211.59 58.83;" xml:space="preserve">
<style type="text/css">
	.st0{enable-background:new    ;}
	.st1{fill:#292621;}
	.st2{fill:none;stroke:#292621;stroke-width:1.821;stroke-linecap:round;}
	.st3{fill:#D9DAD0;stroke:#55524C;stroke-width:2;}
	.st4{clip-path:url(#SVGID_00000016071846113619360160000000604745736370353320_);}
	.st5{fill:#504D49;}
</style>
<g>
	<g class="st0">
		<path class="st1" d="M4.69,58.54v-14H0l0.16-1.52h11.06l0.16,1.52H6.71v14H4.69z"/>
		<path class="st1" d="M13.36,58.54V43.01h7.86l0.14,1.52h-5.98v5.17h5.52v1.5h-5.52v5.82h6.44l-0.14,1.52H13.36z"/>
		<path class="st1" d="M32.79,58.54l-1.63-4c-0.97-2.16-1.66-2.76-2.92-2.76h-1.7v6.76h-2.02V43.01h4.53c3.1,0,4.69,1.47,4.69,4.23
			c0,2.12-1.13,3.43-2.97,3.89v0.05c1.08,0.6,1.66,1.47,2.35,2.97L35,58.54H32.79z M28.56,44.39h-2.02v5.96h2.05
			c1.86,0,3.06-0.99,3.06-3.01C31.65,45.59,30.84,44.39,28.56,44.39z"/>
		<path class="st1" d="M48.53,58.54l-0.28-9.73c0-0.8-0.02-1.66,0-2.55h-0.05c-0.28,0.92-0.55,1.68-0.83,2.46l-2.6,7.31h-1.89
			l-2.64-7.31c-0.28-0.71-0.57-1.52-0.83-2.46h-0.05c0,0.92,0,1.75-0.02,2.55l-0.25,9.73h-1.75l0.44-15.52h2.48l2.83,7.93
			c0.3,0.9,0.6,1.82,0.83,2.74h0.05c0.25-0.92,0.51-1.84,0.8-2.74l2.78-7.93h2.51l0.46,15.52H48.53z"/>
		<path class="st1" d="M54.12,58.54V43.01h2.02v15.52H54.12z"/>
		<path class="st1" d="M68.33,58.54L63,48.85c-0.39-0.71-0.99-1.86-1.24-2.44h-0.02v12.12h-1.79V43.01h2.12l5.11,9.36
			c0.41,0.78,1.13,2.09,1.45,2.83h0.05V43.01h1.77v15.52H68.33z"/>
		<path class="st1" d="M82.47,58.54l-1.36-4.58h-5.2l-1.36,4.58h-1.91l4.76-15.52h2.51l4.67,15.52H82.47z M79.69,48.92
			c-0.41-1.38-0.8-2.76-1.13-4.18h-0.05c-0.34,1.45-0.76,2.81-1.17,4.18l-1.03,3.52h4.39L79.69,48.92z"/>
		<path class="st1" d="M95.08,58.54l-1.63-4c-0.97-2.16-1.66-2.76-2.92-2.76h-1.7v6.76H86.8V43.01h4.53c3.1,0,4.69,1.47,4.69,4.23
			c0,2.12-1.13,3.43-2.97,3.89v0.05c1.08,0.6,1.66,1.47,2.35,2.97l1.89,4.39H95.08z M90.85,44.39h-2.02v5.96h2.05
			c1.86,0,3.06-0.99,3.06-3.01C93.93,45.59,93.12,44.39,90.85,44.39z"/>
		<path class="st1" d="M113.48,58.54l-1.63-4c-0.97-2.16-1.66-2.76-2.92-2.76h-1.7v6.76h-2.02V43.01h4.53c3.1,0,4.69,1.47,4.69,4.23
			c0,2.12-1.13,3.43-2.97,3.89v0.05c1.08,0.6,1.66,1.47,2.35,2.97l1.89,4.39H113.48z M109.25,44.39h-2.02v5.96h2.05
			c1.86,0,3.06-0.99,3.06-3.01C112.33,45.59,111.52,44.39,109.25,44.39z"/>
		<path class="st1" d="M118.24,58.54V43.01h7.86l0.14,1.52h-5.98v5.17h5.52v1.5h-5.52v5.82h6.44l-0.14,1.52H118.24z"/>
		<path class="st1" d="M134.45,58.83c-4.07,0-6.3-2.81-6.3-8.03c0-4.81,1.91-8.09,6.23-8.09c1.36,0,2.55,0.37,3.38,0.83v3.73h-1.22
			l-0.3-2.71c-0.53-0.21-1.1-0.3-1.7-0.3c-2.8,0-4.21,2.23-4.21,6.42c0,4.12,1.4,6.53,4.81,6.53c1.15,0,2.23-0.28,3.2-0.78
			l-0.21,1.4C137.24,58.42,135.95,58.83,134.45,58.83z"/>
		<path class="st1" d="M145.47,58.83c-3.86,0-5.93-2.46-5.93-7.82c0-5.5,2.16-8.3,6.14-8.3c3.86,0,5.93,2.39,5.93,7.75
			C151.61,55.96,149.45,58.83,145.47,58.83z M145.66,44.23c-2.64,0-3.93,2.23-3.93,6.74c0,4.42,1.2,6.35,3.77,6.35
			c2.64,0,3.93-2.28,3.93-6.83C149.43,46.12,148.25,44.23,145.66,44.23z"/>
		<path class="st1" d="M162.49,58.54l-1.63-4c-0.97-2.16-1.66-2.76-2.92-2.76h-1.7v6.76h-2.02V43.01h4.53c3.1,0,4.69,1.47,4.69,4.23
			c0,2.12-1.13,3.43-2.97,3.89v0.05c1.08,0.6,1.66,1.47,2.34,2.97l1.89,4.39H162.49z M158.26,44.39h-2.02v5.96h2.05
			c1.86,0,3.06-0.99,3.06-3.01C161.34,45.59,160.54,44.39,158.26,44.39z"/>
		<path class="st1" d="M175.53,58.54l-1.63-4c-0.97-2.16-1.66-2.76-2.92-2.76h-1.7v6.76h-2.02V43.01h4.53c3.1,0,4.69,1.47,4.69,4.23
			c0,2.12-1.13,3.43-2.97,3.89v0.05c1.08,0.6,1.66,1.47,2.34,2.97l1.89,4.39H175.53z M171.3,44.39h-2.02v5.96h2.05
			c1.86,0,3.06-0.99,3.06-3.01C174.38,45.59,173.58,44.39,171.3,44.39z"/>
		<path class="st1" d="M180.29,58.54V43.01h2.02v15.52H180.29z"/>
		<path class="st1" d="M190.73,58.54h-4.62V43.01h4.62c4.74,0,6.74,2.6,6.74,7.63C197.47,55.55,195.33,58.54,190.73,58.54z
			 M190.53,44.46h-2.39v12.62h2.39c3.24,0,4.78-2.16,4.78-6.42C195.31,46.37,193.82,44.46,190.53,44.46z"/>
		<path class="st1" d="M205.13,58.83c-3.86,0-5.93-2.46-5.93-7.82c0-5.5,2.16-8.3,6.14-8.3c3.86,0,5.93,2.39,5.93,7.75
			C211.27,55.96,209.11,58.83,205.13,58.83z M205.32,44.23c-2.64,0-3.93,2.23-3.93,6.74c0,4.42,1.2,6.35,3.77,6.35
			c2.64,0,3.93-2.28,3.93-6.83C209.09,46.12,207.91,44.23,205.32,44.23z"/>
	</g>
	<g>
		<g>
			<line id="Línea_7" class="st2" x1="1.34" y1="19.04" x2="90.34" y2="19.04"/>
			<line id="Línea_9" class="st2" x1="121.34" y1="19.04" x2="210.34" y2="19.04"/>
		</g>
		<g>
			<circle id="Elipse_29" class="st3" cx="105.84" cy="17.04" r="15.5"/>
			<g id="Grupo_229" transform="translate(133.87 6.37)">
				<g>
					<defs>
						<rect id="SVGID_1_" x="-37.16" y="1.54" width="18.26" height="18.26"/>
					</defs>
					<clipPath id="SVGID_00000170979368583155837310000009930224337943867308_">
						<use xlink:href="#SVGID_1_"  style="overflow:visible;"/>
					</clipPath>
					<g id="Grupo_228" style="clip-path:url(#SVGID_00000170979368583155837310000009930224337943867308_);">
						<path id="Trazado_167" class="st5" d="M-36.84,3.42c-0.43-0.43-0.43-1.13,0-1.56s1.13-0.43,1.56,0l7.25,7.25l7.24-7.25
							c0.43-0.43,1.13-0.43,1.56,0.01c0.43,0.43,0.43,1.13-0.01,1.56l-7.23,7.24l7.24,7.24c0.43,0.43,0.43,1.13-0.01,1.56
							s-1.13,0.43-1.56-0.01l-7.24-7.23l-7.25,7.24c-0.43,0.43-1.13,0.43-1.56,0c-0.43-0.43-0.43-1.13,0-1.56l7.25-7.24L-36.84,3.42
							z"/>
					</g>
				</g>
			</g>
		</g>
	</g>
</g>
</svg>
