<?xml version="1.0" encoding="utf-8"?>
<!-- Generator: Adobe Illustrator 18.0.0, SVG Export Plug-In . SVG Version: 6.00 Build 0)  -->
<!DOCTYPE svg PUBLIC "-//W3C//DTD SVG 1.1//EN" "http://www.w3.org/Graphics/SVG/1.1/DTD/svg11.dtd">
<svg version="1.1" id="Capa_1" xmlns="http://www.w3.org/2000/svg" xmlns:xlink="http://www.w3.org/1999/xlink" x="0px" y="0px"
	 viewBox="452.4 0 695.1 900" enable-background="new 452.4 0 695.1 900" xml:space="preserve">
<g id="surface1_00000073712040010773143860000000923890040330982553_" display="none" opacity="0.6">
	<path display="inline" fill="#292621" d="M904.8,155.2V0H539.1c-47.3,0-86.6,39-86.6,86.5v727.1c0,47.4,39.3,86.5,86.6,86.5h521.9
		c47.4,0,86.6-39,86.6-86.5V254.8h-143.1C949.4,254.8,904.8,210.2,904.8,155.2z M995.9,773.8H604.1c-10.4,0-19-8.6-19-19
		c0-10.4,8.6-19,19-19h392.2c10.4,0,19,8.6,19,19C1015.2,765.2,1006.7,773.8,995.9,773.8z M1011.9,357.4v223.7
		c0,7-3.3,13.3-9.6,16.7c-2.9,1.6-5.7,2.3-9,2.3c-3.6,0-6.7-1-9.7-2.9l-105-65.4v48.6c0,10.4-9.3,19.3-19.7,19.3H606.7
		c-10.4,0-18.6-8.9-18.6-19.3V357.1c0-10.4,8.1-19,18.6-19h252.2c10.4,0,19.7,8.6,19.7,19v39.5l106.2-56.2c5.9-3,12.6-2.9,18.3,0.4
		C1008.6,344.4,1011.9,350.7,1011.9,357.4z"/>
	<path display="inline" opacity="0.7" fill="#292621" enable-background="new    " d="M1004.5,216.6h116.9L942.8,29.3v125.9
		C942.8,189.3,970.3,216.6,1004.5,216.6z"/>
	<path display="inline" fill="#292621" d="M878.6,487.1l95.2,59.8v-158l-95.2,50.8V487.1z"/>
	<path display="inline" fill="#292621" d="M626.3,376.2h214.3v185.7H626.3V376.2z"/>
</g>
<g>
	<path opacity="0.7" fill="#FC6E53" enable-background="new    " d="M1001.9,216.9h116.9L940.3,29.6v125.9
		C940.3,189.7,967.7,216.9,1001.9,216.9z"/>
	<g>
		<path fill="#FC6E53" d="M902.3,155.6V0.3H536.5c-47.3,0-86.6,39-86.6,86.5v727.1c0,47.4,39.3,86.5,86.6,86.5h521.9
			c47.4,0,86.6-39,86.6-86.5V255.1h-143.1C946.8,255.1,902.3,210.6,902.3,155.6z M993.4,774.1H601.5c-10.4,0-19-8.6-19-19
			c0-10.4,8.6-19,19-19h392.2c10.4,0,19,8.6,19,19C1012.7,765.5,1004.1,774.1,993.4,774.1z M1009.3,357.7v223.7
			c0,7-3.3,13.3-9.6,16.7c-2.9,1.6-5.7,2.3-9,2.3c-3.6,0-6.7-1-9.7-2.9l-105-65.4v48.6c0,10.4-9.3,19.3-19.7,19.3H604.1
			c-10.4,0-18.6-8.9-18.6-19.3V357.4c0-10.4,8.1-19,18.6-19h252.2c10.4,0,19.7,8.6,19.7,19v39.5l106.2-56.2c5.9-3,12.6-2.9,18.3,0.4
			C1006,344.8,1009.3,351,1009.3,357.7z"/>
		<path fill="#FC6E53" d="M876,487.4l95.2,59.8V389L876,439.8V487.4z"/>
		<path fill="#FC6E53" d="M623.7,376.5H838v185.7H623.7V376.5z"/>
	</g>
</g>
</svg>
