<?xml version="1.0" encoding="utf-8"?>
<!-- Generator: Adobe Illustrator 28.0.0, SVG Export Plug-In . SVG Version: 6.00 Build 0)  -->
<svg version="1.1" id="Capa_1" xmlns="http://www.w3.org/2000/svg" xmlns:xlink="http://www.w3.org/1999/xlink" x="0px" y="0px"
	 viewBox="0 0 23.1 23.2" style="enable-background:new 0 0 23.1 23.2;" xml:space="preserve">
<style type="text/css">
	.st0{fill:#292621;}
</style>
<path id="Trazado_185" class="st0" d="M19.8,3.4c-4.3-4.3-11.3-4.3-15.6,0C0.8,6.8,0,12.1,2.4,16.4l-2.3,6.6l6.6-2.3
	c5.3,2.9,12,1,15-4.3C24,12.1,23.3,6.8,19.8,3.4L19.8,3.4z M17.5,15.1l-1.3,1.3c-1,1-4-0.2-6.6-2.8S5.6,8,6.7,7L8,5.7
	c0.3-0.3,0.7-0.3,0.9,0l0,0l1.6,1.6c0.3,0.3,0.3,0.7,0,0.9l0,0L9.6,9.1c0.9,1.9,2.5,3.5,4.4,4.4l0.9-0.9c0.3-0.3,0.7-0.3,0.9,0l0,0
	l1.6,1.6C17.8,14.5,17.8,14.9,17.5,15.1z"/>
</svg>
